<?xml version="1.0" encoding="utf-8"?>
<!-- Generator: Adobe Illustrator 16.0.0, SVG Export Plug-In . SVG Version: 6.00 Build 0)  -->
<!DOCTYPE svg PUBLIC "-//W3C//DTD SVG 1.1//EN" "http://www.w3.org/Graphics/SVG/1.1/DTD/svg11.dtd">
<svg version="1.1" id="Layer_1" xmlns="http://www.w3.org/2000/svg" xmlns:xlink="http://www.w3.org/1999/xlink" x="0px" y="0px"
	 width="559.849px" height="134.848px" viewBox="0 0 559.849 134.848" enable-background="new 0 0 559.849 134.848"
	 xml:space="preserve">
<defs>
	<rect id="SVGID_1_" x="12.122" y="-3.031" width="535.606" height="137.879"/>
</defs>
<clipPath id="SVGID_2_">
	<use xlink:href="#SVGID_1_"  overflow="visible"/>
</clipPath>
<g clip-path="url(#SVGID_2_)">
	<g>
		<path fill-rule="evenodd" clip-rule="evenodd" fill="#FFFFFF" d="M8.696,118.109c0-33.935,0-67.557,0-101.257
			c177.262,0,354.524,0,531.756,0c0,33.765,0,67.511,0,101.257C363.22,118.109,186.018,118.109,8.696,118.109z M338.024,78.448
			c1.23-0.913,2.462-1.825,3.693-2.738c0.31,1.052,0.285,2.499,0.984,3.089c3.379,2.851,3.952,5.617,0.109,9.016
			c2.265-0.238,4.793-0.304,5.686-1.546c3.379-4.701-3.714-5.501-3.962-9.09c2.603-1.369,5.094-2.68,7.4-3.893
			c3.983,2.097,4.555,4.431,2.502,8.433c-2.079,4.051-2.083,8.778,1.293,12.566c3.122,3.502,6.704,2.135,10.16,0.155
			c1.821,3.246,2.148,6.425-0.075,9.084c-1.12,1.34-3.312,2.016-5.144,2.412c-0.669,0.144-1.7-1.392-2.567-2.161
			c0.228-0.285,0.454-0.57,0.68-0.855c1.31,0.34,2.619,0.68,4.301,1.117c-3.121-5.459-10.47-7.885-15.088-4.818
			c-2.035,1.352-3.275,4.057-4.486,6.353c-0.226,0.428,1.588,2.744,2.15,2.632c2.138-0.426,4.148-1.491,6.88-2.587
			c7.929,4.054,12.397,4.057,15.312-0.46c2.992-4.637,2.222-10.31-1.946-13.647c-1.016-0.813-2.256-1.345-3.78-2.231
			c0.308,1.884,0.497,3.042,0.687,4.2c-0.304,0.389-0.607,0.778-0.911,1.167c-1.852-1.048-4.263-1.672-5.439-3.23
			c-2.58-3.412-1.764-7.542,1.854-12.12c5.265,6.525,12.365,8.947,21.068,8.468c-1.272,3.357,2.658,7.355-2.872,9.052
			c-2.639,0.81-5.298,1.946-4.622,5.662c0.704,3.871,3.724,6.51,8.082,6.58c-0.806-0.941-1.607-1.556-1.964-2.367
			c-0.588-1.341-1.567-3.106-1.115-4.137c0.433-0.984,2.496-1.764,3.815-1.726c1.935,0.056,4.043,0.573,5.72,1.525
			c2.345,1.332,4.227,3.481,6.575,4.807c1.192,0.674,3.192,0.842,4.444,0.319c4.22-1.763,6.366-5.187,6.475-10.073
			c0.345,4.958,2.944,8.192,6.565,10.827c2.042,1.485,3.566,1.595,5.56-0.502c2.135-2.246,4.817-4.09,7.533-5.631
			c2.718-1.542,6.075-2.246,8.396,0.36c1.11,1.248,0.729,3.825,1.011,5.719c3.038-1.25,5.703-3.874,4.966-6.149
			c-0.611-1.885-2.4-3.883-4.193-4.793c-4.708-2.387-5.188-3.008-3.47-8.5c8.154,0.296,14.893-3.199,21.768-9.632
			c0.485,4.016,1.056,6.752,1.081,9.494c0.026,2.857-1.42,5.391-4.488,5.224c-1.602-0.087-3.101-2.084-5.13-3.575
			c-0.589,0.95-1.94,2.613-2.73,4.511c-1.728,4.146-0.443,8.09,2.225,11.225c2.652,3.115,6.38,3.083,9.924,1.266
			c2.16-1.108,4.109-2.629,6.267-3.745c2.42-1.251,4.771-1.668,6.153,1.959c-0.917,0.255-1.442,0.389-1.961,0.548
			c-0.538,0.165-1.068,0.353-1.903,0.63c3.646,2.448,5.13,2.093,5.267-1.22c0.075-1.821-0.521-4.062-1.632-5.467
			c-3.771-4.767-15.747-3.509-17.834,2.712c1.432,0.289,2.895,0.584,4.357,0.879c-0.205,0.771-0.395,2.202-0.619,2.207
			c-1.766,0.042-3.778,0.301-5.262-0.428c-4.292-2.11-5.011-6.083-2.415-11.145c5.431,3.556,10.875,1.476,11.808-4.81
			c0.344-2.311,0.137-5.15-0.947-7.132c-2.307-4.224-0.652-6.721,2.762-9.081c1.022,0.697,2.064,1.457,3.155,2.137
			c1.054,0.658,2.159,1.233,3.48,1.98c-0.803,1.121-1.265,2.316-2.137,2.877c-2.36,1.518-3.279,3.534-1.656,5.786
			c1.81,2.513,4.274,2.268,6.789,0.541c-4.716-4.622-4.716-4.622,0.223-10.289c-2.896-1.498-5.828-3.014-9.813-5.075
			c3.617-2.397,6.202-4.11,8.786-5.824c-0.228-0.443-0.457-0.887-0.687-1.331c-2.444,1.122-5.098,1.944-7.27,3.457
			c-1.95,1.357-3.213,1.331-5.329,0.264c-9.011-4.542-18.362-5.691-28.059-2.027c-1.24,0.469-2.848,0.412-4.178,0.117
			c-3.876-0.862-7.698-1.969-11.541-2.979c0.008,0.489,0.015,0.979,0.021,1.468c-1.783,2.312-3.566,4.624-5.264,6.825
			c-2.022-1.644-3.787-3.078-5.551-4.512c-0.238,0.249-0.476,0.498-0.713,0.747c1.308,1.491,2.613,2.982,3.909,4.466
			c-5.996,4.933-6.936,5.557-3.447,15.228c0.502,1.39,0.6,2.925,0.885,4.392c-3.724-3.205-6.18-0.506-9.563,0.93
			c0.327-1.518,0.655-3.036,0.982-4.555c-1.563,0.799-3.189,2.192-3.098,3.46c0.126,1.738,1.125,4.088,2.51,4.938
			c4.454,2.732,8.031,0.453,10.909-3.59c1.865,6.138,0.988,9.886-2.764,12.065c-4.522,2.626-5.61-2.413-8.336-3.864
			c-4.843-2.58-5.042-6.825-4.795-11.463c0.171-3.216,0.033-6.448,0.033-10.021c-10.84,5.116-18.496,3.637-23.467-4.155
			c3.752-3.917,7.941-6.94,13.813-6.944c-2.751,2.15-7.087,3.366-4.561,8.166c1.172,2.228,3.108,2.681,4.462,1.794
			c0-2.747,0-4.759,0-7.739c1.957,0.343,4.023,0.402,5.859,1.083c6.537,2.424,11.884,0.844,13.461-4.589
			c-1.158,0.741-2.04,1.305-2.922,1.87c0.066-0.409,0.134-0.818,0.201-1.227c-1.908-0.453-3.817-0.905-5.726-1.358
			c-3.929-0.932-7.956,2.369-11.894-0.271c-0.296-0.198-1.16,0.395-1.732,0.676c-4.418,2.168-8.828,4.35-13.437,6.625
			c-0.68-0.537-1.967-1.552-3.924-3.097c4.226-1.79,7.534-3.191,10.844-4.592c-2.743,0.039-5.546,0.295-7.787,1.552
			c-2.882,1.616-5.235,2.397-8.345,0.484c-1.757-1.081-4.146-1.134-6.249-1.65c-0.062,0.315-0.123,0.63-0.185,0.945
			c2.499,1.503,4.999,3.007,7.499,4.51c0.001,0.421,0.002,0.842,0.004,1.264c-2.881,1.033-5.762,2.066-8.643,3.122
			c-3.197-1.231-6.395-2.462-9.592-3.694c-0.021-0.559-0.044-1.118-0.065-1.677c2.575-1.689,5.149-3.378,7.725-5.067
			c-0.224-0.443-0.446-0.886-0.67-1.329c-2.523,1.175-5,2.475-7.593,3.473c-1.275,0.491-2.89,0.873-4.137,0.528
			c-4.381-1.212-8.605-3.632-13.01-3.954c-5.202-0.381-10.721-1.744-15.896,1.442c-1.295,0.797-3.873-0.672-5.882-0.813
			c-3.42-0.24-7.147-1.104-10.186-0.066c-2.079,0.711-3.207,4.205-4.76,6.455c-2.066-1.563-3.878-2.937-5.69-4.309
			c-0.218,0.263-0.437,0.525-0.655,0.787c1.313,1.387,2.626,2.775,3.928,4.15c-6.619,5.885-6.776,6.715-3.599,15.13
			c0.536,1.42,0.538,3.043,0.786,4.573c-3.96-3.242-6.306,0.021-9.627,1.931c0.521-2.545,0.842-4.116,1.163-5.686
			c-0.365-0.131-0.73-0.262-1.096-0.393c-0.719,1.632-2.186,3.38-1.955,4.864c0.252,1.618,1.777,3.542,3.278,4.365
			c4.43,2.431,7.422-0.475,10.263-4.05c0.428,1.914,0.939,3.296,1.013,4.703c0.215,4.095-3.487,8.73-6.525,8.366
			c-2.095-0.251-10.039-8.62-10.162-10.848c-0.274-4.959-0.454-9.923-0.677-14.999c-11.435,4.498-17.216,3.401-23.142-4.192
			c4.438-5.343,10.522-8.285,14.044-6.7c-2.924,1.498-6.747,2.421-4.976,7.043c1.019,2.658,2.937,3.132,4.58,2.374
			c0.075-1.547,0.137-2.373,0.149-3.199c0.019-1.344,0.005-2.688,0.005-4.867c2.311,0.581,4.348,0.917,6.258,1.604
			c6.466,2.326,11.912,0.404,12.903-4.844c-1.419,1.042-2.733,2.007-4.481,3.29c0.904-2.345-0.667-4.503-2.332-4.517
			c-4.471-0.036-8.893,2.829-13.436,0.23c-0.34-0.195-1.169,0.406-1.744,0.692c-4.401,2.184-8.795,4.381-13.453,6.705
			c-0.719-0.563-2.003-1.566-3.996-3.124c4.277-1.796,7.528-3.162,10.78-4.528c-2.811-0.01-5.533,0.418-7.842,1.633
			c-2.749,1.446-5.023,2.214-7.994,0.381c-1.79-1.104-4.208-1.193-6.343-1.739c-0.074,0.321-0.148,0.641-0.222,0.962
			c2.522,1.514,5.045,3.028,8.283,4.971c-3.695,1.898-6.668,3.425-9.821,5.045c2.22,3.405,7.345,6.241,1.4,10.899
			c2.347-0.239,4.978-0.359,5.866-1.664c3.266-4.8-3.913-5.372-4.182-8.884c2.601-1.367,5.103-2.682,8.034-4.223
			c1.388,1.329,2.809,2.688,4.171,3.991c-3.268,5.959-5.422,11.548-1.088,17.062c2.941,3.742,6.756,2.604,10.283,0.323
			c1.959,3.315,2.274,6.475-0.004,9.131c-1.147,1.338-3.306,2.03-5.136,2.443c-0.66,0.149-1.696-1.373-2.561-2.132
			c0.229-0.284,0.457-0.568,0.686-0.853c1.354,0.365,2.709,0.729,4.419,1.19c-3.781-6.774-13.454-8.308-17.799-3.139
			c-1.66,1.975-3.521,4.511-0.627,6.742c2.578,1.988,4.522,0.305,5.95-2.078c0.183-0.306,0.701-0.411,1.018-0.583
			c7.157,4.017,10.731,4.518,14.09,1.991c3.598-2.707,4.184-6.622,3.337-10.513c-0.781-3.588-3.355-6.034-6.872-6.879
			c0,1.521,0,2.759,0,3.998c-1.705-0.333-3.924-0.103-5.021-1.102c-3.581-3.261-3.011-8.526,1.187-13.179
			c5.178,6.408,12.131,8.825,20.441,8.322c-0.006,4.234,2.03,8.669-4.312,9.976c-3.173,0.654-3.271,3.494-2.337,5.93
			c1.222,3.184,3.311,5.615,7.179,5.288c-0.143-0.913-0.728-1.356-1.024-1.945c-0.715-1.42-1.296-2.909-1.931-4.37
			c1.618-0.625,3.522-2.123,4.799-1.705c3.303,1.081,6.618,2.62,9.402,4.685c4.455,3.306,8.436,3.067,11.254-1.671
			c0.994-1.67,1.229-3.792,1.44-4.487c2.085,2.576,4.454,5.865,7.216,8.781c1.68,1.772,3.384,1.546,5.459-0.505
			c2.588-2.557,5.816-4.809,9.187-6.101c1.989-0.763,5.032,0.124,7.099,1.219c0.774,0.41,0.125,3.509,0.125,5.813
			c2.948-1.083,5.092-2.908,5.424-6.242c0.317-3.185-1.905-4.564-4.512-5.493c-0.406-0.145-0.812-0.306-1.231-0.393
			c-3.55-0.732-2.643-3.733-2.654-5.924c-0.003-0.634,2.19-1.416,3.466-1.896c4.522-1.701,9.152-3.135,13.593-5.021
			c1.712-0.727,3.026-2.392,5.602-4.523c0.455,4.079,1.118,6.999,1.008,9.889c-0.108,2.817-1.823,5.241-4.917,4.811
			c-1.519-0.211-2.783-2.246-4.521-3.771c-0.291,0.388-1.192,1.45-1.94,2.611c-2.317,3.598-1.925,9.66,0.777,12.948
			c2.506,3.048,6.046,3.58,11.029,1.293c2.194-1.006,4.009-2.956,6.252-3.698c1.391-0.46,3.266,0.541,4.923,0.886
			c-0.823,0.978-1.647,1.955-2.609,3.097c2.14,1.962,4.207,1.796,4.435-1.471c0.146-2.094-0.732-4.94-2.206-6.339
			c-4.578-4.346-13.361-2.668-17.013,2.84c-0.093,0.141,0.136,0.495,0.242,0.84c1.18-0.182,2.364-0.364,4.424-0.682
			c-0.563,1.612-1.152,3.542-1.24,3.52c-2.491-0.639-5.607-0.803-7.226-2.433c-2.568-2.585-2.5-6.169-1.164-8.161
			c3.517,0.058,6.605,1.022,8.359-0.1c2.063-1.322,3.465-4.306,4.214-6.847c0.556-1.886,0.201-4.547-0.779-6.279
			c-2.359-4.168-0.559-6.608,2.923-9.115c2.136,1.676,4.308,3.382,6.479,5.087c-0.805,0.794-1.496,1.777-2.438,2.347
			c-2.535,1.536-2.934,3.679-1.197,5.724c1.881,2.216,4.255,2.352,6.756-0.215C337.101,84.187,336.323,81.687,338.024,78.448z
			 M59.746,55.803c-0.109-0.99-0.029-2.047-0.358-2.958c-1.478-4.096,0.623-6.319,3.212-7.9c1.04,1.929,1.658,3.765,2.878,5.014
			c0.521,0.533,3.178,0.149,3.35-0.346c0.82-2.353,1.119-4.886,1.486-6.761c-2.304,0-3.741-0.341-4.915,0.071
			c-2.4,0.842-5.837,1.516-6.706,3.301c-1.385,2.844-3.097,6.844,1.138,9.505c0.651,1.427,1.303,2.854,2.319,5.081
			c-1.904-1.144-3.434-1.779-4.608-2.816c-5.679-5.014-8.539-5.925-9.55,4.877c-2.76-2.106-5.978-3.362-7.07-5.638
			c-2.458-5.118,3.407-5.591,5.939-8.126c-5.387,0.625-10.475,3-15.536-1.231c-0.167,0.692-0.333,1.385-0.5,2.078
			c1.82,0.984,3.641,1.968,5.542,2.997c-0.161,1.276-0.562,2.845-0.512,4.4c0.098,3.084-1.107,3.388-3.692,2.334
			c-0.856-0.349-2.389,0.08-3.203,0.694c-1.866,1.41-3.48,3.152-4.919,4.5c2.055,5.46,6.479,4.12,10.251,3.192
			c0.493,3.183,0.875,5.662,1.258,8.132c-5.019,0.589-5.746,1.167-6.775,6.406c5.727-5.027,11.792-4.897,18.212-3.312
			c-0.926-1.275-2.182-1.391-2.761-2.079c-1.374-1.633-3.577-3.733-3.313-5.279c0.316-1.847,2.855-3.314,4.431-4.946
			c0.823,1.209,1.974,2.312,2.406,3.647c1.237,3.82,3.631,4.551,6.728,1.868c2.28-1.976,4.612-3.892,6.921-5.834
			c-8.06,11.412-6.638,17.605,5.803,19.96c-1.455,2.022-2.398,4.616-4.112,5.311c-1.385,0.562-3.698-1.166-5.744-1.931
			c-0.765,3.264,1.265,5.63,3.927,6.984c1.591,0.809,3.929,0.148,6.43,0.148c1.502,3.072,1.895,3.012,7.825-2.477
			c0.403,1.121,0.812,2.26,1.221,3.399c1.294-5.56-0.868-7.015-4.882-5.341c-1.267,0.528-2.845,0.306-4.281,0.427
			c0.088-1.316,0.131-2.636,0.276-3.945c0.141-1.273,0.817-2.659,0.495-3.774c-0.676-2.335-1.539-4.787-3.042-6.594
			c-0.392-0.472-3.422,1.251-5.35,2.009c-3.167-4.845-0.308-11.1,5.452-12.577c1.863,1.577,3.93,4.098,4.615,3.766
			c2.199-1.065,3.886-3.186,5.771-4.899c-0.153-0.398-0.305-0.796-0.458-1.195c2.045,0.913,4.09,1.827,6.785,3.031
			c-2.617,1.897-4.334,3.188-6.098,4.411c-6.423,4.452-7.067,8.604-2.366,14.773c2.406,3.157,5.637,4.043,9.187,2.99
			c3.736-1.108,6.063-3.778,6.269-7.879c0.083-1.666,0.014-3.338,0.014-5.275c5.071,3.647,5.346,5.16,2.213,9.767
			c2.019-0.335,4.635-0.716,5.437-2.128c0.58-1.022-1.114-3.484-2.045-5.165c-0.622-1.124-1.684-2.003-2.608-3.059
			c2.977-1.595,5.364-2.875,7.748-4.153c3.482,1.896,5.096,3.982,2.769,8.209c-1.271,2.307-1.389,5.633-1.035,8.372
			c0.745,5.768,5.759,7.96,10.846,5.185c0.448-0.245,1.014-0.274,1.672-0.441c1.571,3.416,2.039,6.715-0.678,9.346
			c-1.247,1.208-3.455,1.585-5.303,1.899c-0.479,0.081-1.24-1.496-1.872-2.312c0.23-0.218,0.46-0.436,0.69-0.654
			c1.233,0.396,2.466,0.791,4.084,1.31c-3.117-5.999-11.252-8.203-16.055-4.382c-1.673,1.332-2.471,3.921-3.265,6.085
			c-0.189,0.513,1.561,2.446,1.886,2.323c1.958-0.744,3.758-1.898,5.615-2.908c0.118-0.064,0.266-0.074,0.4-0.108
			c8.949,4.407,12.828,4.479,15.956,0.292c3.038-4.065,2.81-9.512-0.732-13.052c-1.218-1.218-2.814-2.058-4.904-3.544
			c0.488,2.195,0.745,3.351,1.001,4.507c-4.221,0.999-5.254,0.66-6.753-2.062c-2.071-3.762-1.307-8.116,2.382-12.024
			C111.614,86.254,119,88,127.172,87.856c0,2.979,0,5.516,0,7.895c-3.11,1.767-7.97,1.344-7.368,6.61
			c0.45,3.934,4.197,6.869,8.112,6.551c-0.361-0.551-0.708-0.985-0.951-1.471c-0.82-1.638-1.602-3.295-2.398-4.945
			c1.929-0.563,4.188-2.046,5.72-1.498c3.271,1.17,6.417,3.081,9.144,5.273c2.626,2.113,5.005,3.138,7.398,0.386
			c2.227-2.561,3.96-5.551,5.487-7.744c0.156,3.73,2.644,7.332,6.793,9.509c1.165,0.611,3.407,0.123,4.686-0.644
			c2.552-1.53,4.635-3.837,7.178-5.386c2.802-1.706,6.239-2.677,8.811-0.1c1.202,1.204,0.867,3.941,1.502,7.528
			c1.941-3.156,4.107-5.396,4.56-7.941c0.232-1.31-2.291-3.758-4.086-4.653c-4.685-2.333-5.178-2.988-3.437-8.557
			c8.2,0.476,14.862-3.229,21.913-9.671c0.344,4.39,0.825,7.416,0.749,10.426c-0.078,3.085-2.188,4.921-5.132,4.416
			c-1.354-0.232-2.391-2.305-3.688-3.666c-4.676,3.471-5.726,9.651-1.973,14.93c2.782,3.912,7.896,4.342,13.202,1.057
			c1.59-0.984,2.978-2.531,4.687-3.012c1.385-0.39,3.111,0.432,4.687,0.716c-0.824,1.048-1.647,2.096-2.92,3.716
			c1.236,0.107,2.566,0.222,3.896,0.337c0.139-2.288,1.131-5.001,0.245-6.777c-2-4.007-6.151-4.244-10.198-3.915
			c-3.941,0.321-7.074,2.515-8.241,5.586c1.352,0.169,2.757,0.299,4.124,0.603c0.112,0.025,0.084,1.782-0.094,1.824
			c-1.574,0.372-3.368,1.096-4.774,0.665c-4.726-1.45-6.104-6.631-3.411-11.759c5.446,3.738,11.038,1.42,11.888-5.177
			c0.281-2.186,0.096-4.886-0.976-6.701c-2.468-4.179-0.683-6.676,2.593-9.155c1.017,0.674,2.065,1.409,3.152,2.08
			c1.077,0.665,2.193,1.267,3.649,2.101c-0.853,1.095-1.45,2.313-2.42,3.015c-2.242,1.623-3.182,3.535-1.324,5.8
			c1.833,2.236,4.139,2.116,6.152,0.636c-1.029-1.995-2.8-3.871-2.654-5.583c0.15-1.757,2.174-3.354,3.373-5.014
			c-2.896-1.506-5.81-3.022-9.813-5.104c3.67-2.389,6.209-4.042,8.748-5.695c-0.183-0.425-0.366-0.85-0.548-1.274
			c-2.619,1.182-5.177,2.541-7.883,3.47c-1.356,0.465-3.238,0.683-4.444,0.102c-9.261-4.459-18.643-5.603-28.458-1.975
			c-1.243,0.459-2.846,0.376-4.179,0.08c-3.877-0.862-7.701-1.96-11.546-2.965c0.031,0.513,0.063,1.026,0.094,1.54
			c-1.756,2.186-3.513,4.372-5.306,6.604c-2.036-1.625-3.789-3.025-5.541-4.424c-0.248,0.218-0.495,0.436-0.742,0.653
			c1.321,1.564,2.642,3.129,3.954,4.683c-5.768,4.6-6.962,5.249-3.591,14.839c0.525,1.494,0.716,3.104,1.062,4.661
			c-3.844-2.861-6.343-0.633-8.829,1.718c-0.277-0.237-0.554-0.475-0.832-0.712c0.36-1.531,0.719-3.063,1.079-4.593
			c-1.55,0.824-3.171,2.282-2.998,3.48c0.266,1.837,1.34,4.213,2.824,5.094c4.249,2.523,7.566,0.198,10.198-3.46
			c2.204,5.029,1.315,9.167-2.261,11.622c-4.302,2.952-5.519-1.744-8.101-3.186c-5.309-2.966-5.583-7.765-5.255-12.971
			c0.183-2.907,0.033-5.835,0.033-9.165c-10.569,5.373-18.745,3.781-23.317-3.932c4.525-5.249,10.112-7.935,13.962-6.551
			c-3.092,1.474-6.743,2.665-5.111,7.107c0.915,2.491,2.913,3.347,5.085,2.164c-0.187-1.098-0.405-1.918-0.448-2.747
			c-0.067-1.308-0.018-2.623-0.018-4.816c2.05,0.364,4.044,0.601,5.977,1.082c6.897,1.715,11.941,1.492,13.515-3.345
			c0.098-0.3-0.079-0.688-0.155-1.232c-1.121,0.74-2.038,1.346-2.171,1.434c-1.919-1.07-3.236-2.356-4.669-2.501
			c-4.444-0.451-8.898,2.692-13.435,0.034c-0.347-0.203-1.198,0.366-1.773,0.657c-4.405,2.223-8.8,4.466-13.626,6.921
			c-0.71-0.476-2.083-1.396-3.457-2.316c0.262-0.489,0.523-0.978,0.785-1.466c3.25-1.356,6.501-2.712,9.751-4.068
			c-3.149,0.095-5.95,1.304-8.873,1.99c-2.019,0.474-4.246,0.508-6.309,0.222c-2.405-0.333-4.732-1.229-7.093-1.88
			c-0.067,0.323-0.135,0.645-0.203,0.968c2.525,1.507,5.049,3.013,8.387,5.006c-3.851,1.85-6.869,3.299-9.503,4.565
			c-4.846-3.62-0.987-7.921-1.113-10.913c-2.498,0.573-4.652,1.7-6.522,1.342c-2.546-0.487-4.875-2.106-6.757-2.988
			c1.664-0.622,4.103-1.152,6.11-2.385c2.241-1.378,3.677-1.915,5.966,0.23c1.154,1.081,4.084,1.13,5.826,0.528
			c2.932-1.012,5.557-2.915,8.604-4.606c5.79,4.987,13.177,5.476,20.542,5.545c3.006,0.028,6-1.292,9.04-1.579
			c2.074-0.196,4.58-0.299,6.254,0.666c3.937,2.268,9.204,1.56,11.582-2.2c2.375-3.754,5.201-4.019,8.19-0.746
			c0.719,0.788,1.375,1.633,2.061,2.452c0.351-0.271,0.703-0.542,1.053-0.813c-1.607-2.063-3.215-4.126-4.825-6.191
			c6.68-5.738,6.651-5.748,3.383-15.02c-0.487-1.381-0.487-2.935-0.917-5.752c3.853,4.623,6.259,1.732,9.739-0.841
			c-0.501,2.782-0.776,4.308-1.076,5.969c3.374-2.139,4.275-4.636,2.233-6.983c-1.026-1.18-2.985-2.512-4.279-2.298
			c-2.929,0.484-5.706,1.885-8.975,3.069c0-1.813-0.423-4.397,0.089-6.781c1.047-4.877,5.425-6.01,8.945-2.598
			c1.033,1.002,2.045,2.147,3.292,2.787c3.848,1.974,4.415,5.203,4.179,9.075c-0.231,3.793-0.05,7.612-0.05,11.598
			c11.91-4.058,18.535-2.788,23.463,4.193c-3.998,5.096-10.104,8.172-12.771,7.242c1.261-2.011,3.014-4.055,3.782-6.419
			c0.285-0.878-1.592-2.678-2.79-3.696c-0.404-0.344-1.755,0.425-3.056,0.794c1.068,0.48,1.697,0.763,1.895,0.853
			c-0.262,2.084-0.496,3.944-0.842,6.699c-1.976-0.436-3.927-0.787-5.835-1.303c-6.903-1.866-12.792-2.178-14.129,5.906
			c2.169-0.572,4.238-1.118,6.271-1.654c-0.117,0.509-0.24,1.051-0.468,2.047c5.356-2.145,10.501-2.651,15.699-0.696
			c0.507,0.19,1.244,0.468,1.6,0.252c3.234-1.962,6.736-3.66,9.51-6.156c3.128-2.813,4.831-1.965,6.904,1.574
			c-3.292,1.528-6.401,2.972-9.509,4.415c0.159,0.377,0.318,0.754,0.477,1.131c2.7-1.061,5.639-1.753,8.027-3.297
			c2.006-1.298,3.374-1.212,5.475-0.423c3.12,1.171,6.488,1.68,9.75,2.47l-0.098-0.076c-0.245,2.695,1.365,2.533,2.984,1.744
			c3.073-1.498,6.052-3.188,9.245-4.891c7.457,5.919,16.536,5.473,25.465,5.605c0.915,0.014,1.918-0.529,2.745-1.036
			c2.805-1.715,5.327-2.449,8.182,0.239c2.064,1.942,9.039,1.2,10.277-0.646c4.506-6.721,5.28-6.766,10.322-0.64
			c0.147,0.179,0.484,0.203,0.733,0.299c0.279-0.201,0.558-0.401,0.836-0.602c-1.564-2.068-3.128-4.136-4.903-6.483
			c11.127-4.119,2.595-12.366,2.971-20.13c3.869,4.578,6.058,1.012,9.346-0.801c-0.402,2.314-0.672,3.859-0.94,5.404
			c1.577-1.029,3.148-2.656,2.961-4.045c-0.229-1.691-1.594-3.946-3.073-4.616c-4.186-1.895-7.771-0.484-10.269,4.752
			c-0.575-2.633-1.039-4.001-1.146-5.396c-0.284-3.697,1.464-6.408,4.575-8.202c3.312-1.911,3.908,1.922,5.827,2.963
			c0.867,0.47,1.444,1.499,2.323,1.918c4.147,1.979,4.377,5.484,4.133,9.428c-0.23,3.747-0.05,7.52-0.05,11.656
			c10.946-4.941,17.513-3.764,23.63,3.646c-3.683,5.167-10.481,8.545-13.994,6.954c4.791-2.204,6.344-4.441,4.599-7.533
			c-0.691-1.224-2.782-1.656-4.235-2.449c-0.221,0.421-0.441,0.842-0.661,1.263c0.632,0.333,1.264,0.667,1.808,0.954
			c-0.523,1.001-1.571,2.047-1.425,2.883c0.854,4.853-1.765,3.528-4.472,2.877c-3.032-0.73-6.162-1.386-9.26-1.437
			c-4.21-0.069-5.408,3.128-6.447,6.519c3.592-0.225,6.675-0.539,9.762-0.58c3.541-0.046,7.087,0.107,10.627,0.264
			c0.967,0.043,2.197,0.904,2.832,0.546c3.274-1.849,6.761-3.577,9.473-6.101c3.248-3.021,4.995-2.044,7.174,1.461
			c-3.303,1.519-6.341,2.917-9.379,4.313c0.14,0.367,0.279,0.734,0.418,1.102c2.716-1.073,5.412-2.196,8.154-3.196
			c1.23-0.449,2.718-1.197,3.799-0.865c3.692,1.132,7.256,2.684,10.869,4.075l-0.09-0.1c1.247,0.169,2.72,0.846,3.699,0.412
			c2.991-1.328,5.793-3.083,8.729-4.706c0.447,0.308,0.893,0.686,1.396,0.952c9.11,4.818,18.468,6.486,28.523,2.909
			c1.75-0.623,4.119,0.735,6.215,0.794c3.474,0.098,8.372,1.318,10.177-0.462c6.009-5.929,5.584-6.36,11.504-0.3
			c0.283-0.207,0.568-0.413,0.852-0.62c-1.66-2.118-3.319-4.236-4.945-6.31c6.567-4.523,6.989-6.154,3.938-13.858
			c-0.663-1.674-0.786-3.563-1.159-5.353c3.882,3.173,6.126,0.359,9.576-2.378c-0.437,2.798-0.675,4.323-0.912,5.848
			c1.422-0.939,2.918-2.423,2.764-3.708c-0.206-1.723-1.295-4.055-2.7-4.786c-4.289-2.229-7.868-0.5-10.864,3.545
			c-0.514-2.403-1.113-4.742-0.365-6.512c0.983-2.328,2.777-4.53,4.772-6.075c0.567-0.44,3.116,1.493,4.633,2.521
			c1.305,0.885,2.305,2.263,3.666,3.011c2.943,1.617,3.744,4.007,3.597,7.19c-0.194,4.235-0.048,8.486-0.048,12.917
			c11.598-4.273,18.642-2.862,23.255,4.347c-4.423,5.37-10.432,8.254-13.794,6.46c3.528-1.199,6.354-2.938,4.716-7.213
			c-0.955-2.494-2.819-3.087-4.246-2.118c0,2.738,0,4.807,0,7.874c-1.743-0.165-3.421-0.241-5.071-0.498
			c-2.813-0.438-5.595-1.293-8.415-1.425c-4.413-0.207-6.109,2.75-7.018,6.696c2.345-0.503,4.327-0.929,6.177-1.326
			c0.047,0.601,0.091,1.161,0.146,1.855c5.126-2.269,9.93-2.468,14.823-0.799c0.655,0.224,1.567,0.665,2.005,0.406
			c3.256-1.933,6.789-3.621,9.524-6.154c3.329-3.082,4.949-1.724,7.162,1.491c-3.479,1.612-6.544,3.032-9.608,4.453
			c0.166,0.39,0.333,0.78,0.5,1.169c2.708-1.104,5.366-2.363,8.145-3.25c1.556-0.497,3.416-0.815,4.951-0.442
			c3.05,0.744,5.97,2.021,8.943,3.079c0.16-0.352,0.322-0.703,0.483-1.054c-2.89-1.76-5.78-3.52-9.565-5.824
			c4.054-1.894,7.04-3.29,10.085-4.713c-5.242-6.388-5.242-6.388-2.089-11.08c-1.983,0.315-4.715,0.47-5.557,1.811
			c-2.872,4.575,3.803,5.15,4.288,8.667c-2.553,1.395-5.048,2.758-7.584,4.145c-3.578-1.876-4.554-4.207-2.401-8.236
			c2.117-3.964,2.092-8.441-0.869-12.257c-2.91-3.748-6.588-3.165-10.188-1.005c-2.394-3.22-2.302-6.37-0.315-9.112
			c0.959-1.324,3.015-2.21,4.71-2.498c0.888-0.151,2.068,1.419,3.117,2.212c-0.205,0.323-0.41,0.646-0.615,0.969
			c-1.248-0.217-2.496-0.433-3.973-0.689c2.839,4.951,9.321,7.394,13.798,4.996c1.99-1.066,3.731-3.028,4.907-4.989
			c0.533-0.889-0.208-3.627-1.045-3.995c-1.229-0.54-3.133,0.093-4.602,0.631c-0.721,0.264-1.108,1.439-1.619,2.163
			c-11.622-4.971-15.256-4.409-17.774,2.641c-1.938,5.427,1,10.828,6.21,12.3c0.377-1.386,0.752-2.767,1.127-4.147
			c1.595,0.697,3.704,0.971,4.686,2.168c3.043,3.709,2.409,8.272-1.521,12.721c-5.201-6.374-12.113-8.892-21.163-8.136
			c1.918-3.427-2.837-7.896,3.263-9.566c3.362-0.92,4.893-2.85,4.008-6.346c-0.864-3.413-2.815-5.522-5.775-5.807
			c0.441,2.717,0.818,5.038,1.195,7.358c-2.743,0.09-5.755,0.932-8.162,0.075c-2.862-1.018-5.321-3.357-7.736-5.384
			c-1.888-1.586-3.557-1.847-5.307-0.12c-2.167,2.139-4.229,4.381-6.135,6.369c-1.862-2.144-3.686-4.502-5.784-6.584
			c-2.168-2.153-4.062-2.148-6.543,0.344c-2.443,2.454-5.688,4.48-8.955,5.608c-2.075,0.716-5.146-0.002-7.161-1.148
			c-1.071-0.609-0.846-3.499-1.455-6.658c-1.522,2.842-3.424,5.002-3.655,7.328c-0.147,1.481,1.842,3.893,3.464,4.701
			c5.569,2.776,5.668,2.577,3.694,9.092c-8.459-1.604-14.628,3.278-21.623,8.745c-0.548-3.493-1.761-6.433-1.179-8.958
			c0.513-2.221,3.036-3.978,4.671-5.94c1.445,1.346,2.891,2.691,4.514,4.203c4.117-3.082,5.221-10.107,1.682-15.02
			c-2.849-3.954-8.358-4.199-13.533-0.572c-0.822,0.576-1.479,1.443-2.361,1.864c-1.115,0.532-2.453,1.17-3.565,0.984
			c-1.312-0.219-2.483-1.271-3.716-1.962c1.049-0.76,2.097-1.52,3.146-2.28c-1.131-0.641-3.349-0.767-3.497-0.271
			c-0.798,2.657-1.818,5.501,1.024,7.854c5.237,4.336,13.328,3.037,17.076-2.685c-1.278-0.401-2.663-0.715-3.894-1.335
			c-0.213-0.107,0.094-2.147,0.388-2.208c1.572-0.329,3.403-0.828,4.802-0.321c4.702,1.704,5.895,6.423,3.275,11.771
			c-4.42-2.362-7.328-2.498-9.695,0.219c-4.662,5.353-1.95,10.758,0.579,16.193c-1.484,1.597-2.921,3.144-4.474,4.815
			c-2.52-1.483-4.82-2.838-7.339-4.32c0.891-1.094,1.433-2.312,2.357-2.789c2.48-1.279,3.768-3.094,2.048-5.473
			c-1.661-2.3-4.145-2.765-7.447-0.563c3.235,2.042,6.229,4.426,2.107,7.522c-0.8,0.601-3.41-0.222-4.496-1.175
			c-3.011-2.641-1.846-5.183,1.049-7.753c-2.39,0.189-5.379,0.345-6.133,1.723c-2.477,4.524,3.777,5.211,4.595,8.513
			c-2.706,1.479-5.316,2.906-8.1,4.427c-1.378-1.462-2.729-2.895-3.954-4.195c2.809-5.807,5.317-11.328,0.616-16.84
			c-2.79-3.271-6.231-3.057-9.509-0.563c-2.903-4.199-2.503-8.599,0.877-10.759c2.515-1.606,4.72-1.608,6.728,2.137
			c-2.018-0.182-3.361-0.304-4.787-0.433c3.435,6.177,12.277,7.668,16.98,2.837c1.865-1.916,3.351-4.72,0.877-6.859
			c-2.539-2.196-4.792-0.59-6.201,2.129c-0.106,0.206-0.469,0.279-0.777,0.45c-4.521-1.85-8.749-6.459-14.156-2.119
			c-3.391,2.722-4.202,6.536-3.32,10.56c0.809,3.687,3.259,6.058,6.49,6.954c0.249-1.678,0.451-3.043,0.653-4.41
			c1.622,0.581,3.753,0.701,4.771,1.826c3.116,3.445,2.408,8.995-1.438,12.88c-5.152-6.438-12.15-8.717-20.147-8.185
			c-0.242-2.379-0.734-4.407-0.534-6.364c0.108-1.062,1.214-2.582,2.187-2.888c2.811-0.884,5.479-1.76,4.925-5.36
			c-0.573-3.723-2.246-6.704-5.93-6.96c0.397,2.519,1.927,5.929,0.92,7.036c-2.689,2.959-6.401,1.577-9.456-0.267
			c-2.204-1.33-3.977-3.432-6.253-4.562c-1.451-0.72-4.014-1.039-5.125-0.23c-2.535,1.847-4.484,4.499-6.397,6.532
			c-1.454-1.897-2.91-4.239-4.799-6.155c-2.48-2.515-4.708-3.218-7.904,0.046c-2.636,2.693-6.665,4.298-10.36,5.55
			c-1.576,0.534-4.316-0.584-5.68-1.858c-0.863-0.807-0.161-3.288-0.161-5.018c-0.328-0.237-0.655-0.475-0.983-0.712
			c-1.338,2.282-3.752,4.547-3.791,6.852c-0.079,4.777,4.772,4.898,8.05,6.144c0,2.544,0,4.788,0,7.499
			c-8.799-1.334-15.252,3.078-22.523,9.205c-0.372-4.345-1.3-7.643-0.669-10.609c0.384-1.806,3.014-3.422,4.993-4.39
			c0.469-0.229,2.378,2.489,3.721,3.956c4.418-3.068,5.51-9.348,2.034-14.713c-2.53-3.904-7.75-4.596-12.716-1.607
			c-1.101,0.663-1.969,1.72-3.082,2.354c-1.078,0.615-2.384,1.372-3.498,1.247c-1.339-0.151-2.58-1.168-3.863-1.811
			c1.003-0.858,2.007-1.717,3.704-3.168c-1.613,0.086-4.031,0.078-4.042,0.237c-0.168,2.428-0.967,5.575,0.226,7.191
			c3.617,4.899,14.334,4.853,17.605-1.92c-1.314-0.367-2.704-0.678-3.993-1.225c-0.142-0.06,0.105-2.036,0.495-2.167
			c1.386-0.468,3.051-1.017,4.361-0.648c5.083,1.429,6.578,6.868,3.537,12.101c-3.616-2.372-6.513-2.646-8.98-0.267
			c-5.618,5.418-2.262,11.064,0.074,16.576c-1.508,1.703-2.917,3.293-4.346,4.906c-2.642-1.557-4.969-2.928-7.158-4.217
			c0.334-3.501,7.843-3.939,3.635-8.969c-1.704-2.037-4.085-2.172-6.266-0.096c4.462,4.568,4.439,5.496-0.575,9.079
			c-1.349-1.702-3.348-3.273-3.901-5.25c-0.383-1.368,1.227-3.294,2.392-6.009c-2.446,0.997-5.204,1.236-5.964,2.594
			c-2.47,4.412,3.377,5.17,4.459,8.424c-2.617,1.477-5.191,2.929-7.61,4.293c-4.44-1.958-4.284-4.749-2.376-8.723
			c2.012-4.191,1.922-8.731-1.703-12.431c-2.937-2.998-6.115-2.449-9.292-0.212c-2.525-2.752-2.726-5.779-0.936-8.448
			c1.057-1.576,3.206-2.688,5.094-3.31c0.763-0.251,2.139,1.364,3.236,2.13c-0.199,0.358-0.398,0.716-0.597,1.073
			c-1.334-0.257-2.669-0.514-4.241-0.817c3.871,6.401,12.235,7.999,17.073,3.199c1.284-1.273,1.487-3.82,1.728-5.837
			c0.064-0.541-1.847-2.002-2.36-1.799c-1.556,0.614-2.876,1.832-4.277,2.83c-0.211,0.15-0.365,0.381-0.534,0.563
			c-11.454-4.81-15.177-4.387-17.619,1.98c-2.193,5.719,0.363,10.953,5.864,13.029c0.496-1.44,0.993-2.883,1.489-4.326
			c1.648,0.901,3.869,1.4,4.833,2.779c2.66,3.802,1.745,8.512-1.998,12.101c-5.192-6.354-12.138-8.767-20.711-8.097
			c0-2.104,0.143-3.813-0.034-5.49c-0.251-2.387,0.322-3.712,3.015-4.137c3.088-0.488,4.76-2.353,4.082-5.842
			c-0.76-3.906-2.912-5.858-5.872-5.755c0.425,2.221,0.866,4.522,1.307,6.823c-2.734,0.144-5.656,0.952-8.148,0.246
			c-2.482-0.703-4.827-2.639-6.704-4.551c-2.751-2.802-5.198-2.767-7.744-0.126c-1.808,1.875-3.392,3.966-4.809,5.645
			c-1.937-2.318-3.58-4.673-5.615-6.616c-2.206-2.105-4.198-2.435-6.917,0.27c-2.614,2.6-6.299,4.409-9.833,5.675
			c-1.763,0.631-4.638-0.188-6.251-1.378c-1.063-0.784-0.771-3.401-1.322-6.539c-1.55,2.828-3.571,4.988-3.687,7.246
			c-0.082,1.596,2.08,4.02,3.825,4.864c5.023,2.429,5.379,2.729,3.682,8.601c-9.287,0.139-10.2,0.449-21.833,8.853
			c-0.573-2.939-1.34-5.469-1.497-8.036c-0.196-3.199,1.444-6.002,4.593-6.315c1.424-0.142,3.115,2.406,5.046,4.04
			c0.471-0.684,1.601-1.961,2.32-3.439c2.188-4.498,1.103-10.269-2.299-13.078c-3.11-2.569-7.582-2.329-11.999,0.669
			c-1.421,0.965-2.722,2.597-4.234,2.809c-1.73,0.242-3.635-0.756-5.464-1.216c1.017-0.996,2.033-1.992,4.086-4.005
			c-2.285,0.473-4.605,0.659-4.629,1.005c-0.16,2.307-0.661,5.238,0.497,6.865c3.382,4.75,14.038,5.095,17.608-1.85
			c-1.268-0.427-2.63-0.761-3.826-1.405c-0.213-0.114,0.104-2.12,0.452-2.212c1.441-0.381,3.131-0.824,4.47-0.408
			c4.883,1.515,6.32,6.834,3.453,11.971c-5.396-3.157-10.725-1.474-11.644,3.995c-0.412,2.45-0.386,5.476,0.713,7.571
			c2.307,4.396,1.078,7.118-2.912,9.473c-2.236-1.322-4.537-2.683-7.011-4.146c0.902-1.094,1.462-2.248,2.384-2.798
			c2.229-1.334,4.005-2.885,2.069-5.429c-1.724-2.265-4.137-2.857-6.584-1.089c1.114,1.958,2.977,3.765,2.868,5.444
			c-0.113,1.746-2.131,3.369-3.247,4.949c3.012,1.692,5.771,3.241,9.648,5.419c-3.953,2.443-6.813,4.21-10.856,6.709
			c-0.245-4.265-0.431-7.507-0.642-11.176c-0.778,1.259-1.399,2.264-2.086,3.376c-2.179-0.817-4.281-1.605-6.512-2.441
			c5.297-4.464,5.131-7.08-0.039-9.016c-0.699,1.517-1.385,3.006-2.072,4.496c-0.874-0.418-2.527-0.916-2.495-1.242
			c0.205-2.006,0.192-4.554,1.405-5.802c1.428-1.47,4.027-1.802,6.896-2.933c-1.741-0.082-3.001-0.464-4.029-0.131
			c-4.121,1.339-6.075,4.38-6.728,8.633c-0.594,3.867,1.107,6.369,4.008,8.393c1.909,1.332,3.892,2.556,6.816,4.464
			c-3.583,1.236-5.915,2.041-7.206,2.487c-1.854-2.311-2.935-4.905-4.463-5.205c-1.474-0.289-3.413,1.792-6.109,3.409
			C64.187,58.968,61.966,57.386,59.746,55.803z M525.83,80.845c0.236-0.7,0.473-1.399,0.709-2.099
			c-1.885-1.021-3.77-2.041-5.566-3.014c0.125-1.323,0.404-2.888,0.395-4.45c-0.019-2.937,0.979-3.614,3.695-2.255
			c0.778,0.39,2.369-0.055,3.175-0.664c1.87-1.413,3.487-3.16,4.905-4.488c-2.019-5.796-6.707-3.793-10.209-3.464
			c-0.43-3.083-0.77-5.519-1.106-7.94c5.124-0.573,6.161-1.468,6.153-6.146c-5.354,5.23-11.428,4.498-17.793,3.066
			c1.11,1.342,2.703,1.484,3.383,2.347c1.298,1.649,3.099,3.902,2.788,5.545c-0.324,1.727-2.879,3.033-4.459,4.523
			c-0.864-1.373-2.001-2.647-2.54-4.137c-1.275-3.524-3.457-4.055-6.481-1.459c-2.359,2.024-4.825,3.923-7.245,5.878
			c-0.279-0.291-0.559-0.582-0.839-0.872c4.486-3.68,7.26-7.778,5.041-13.935c-1.587-4.405-5.072-4.497-9.765-4.723
			c1.58-2.41,2.411-5.101,4.055-5.757c1.465-0.585,3.828,1.082,5.796,1.755c0.322-0.167,0.645-0.334,0.967-0.501
			c-1.684-2.176-3.048-4.784-5.177-6.357c-1.177-0.87-3.635-0.006-5.218,0.063c-1.472-0.641-3.394-2.121-4.137-1.668
			c-1.548,0.944-2.472,2.911-3.727,4.555c-1.39-1.589-2.069-2.367-2.75-3.145c-0.361,0.207-0.724,0.415-1.086,0.622
			c0.66,1.343,0.994,3.213,2.071,3.879c1.058,0.653,2.876,0.142,4.352,0.029c1.445-0.11,2.879-0.363,4.317-0.553
			c-0.074,1.434-0.096,2.873-0.239,4.3c-0.13,1.282-0.829,2.675-0.506,3.797c0.643,2.236,1.373,4.813,2.967,6.247
			c0.738,0.663,3.591-1.027,5.664-1.709c3.116,4.938,0.271,10.855-5.734,12.344c-1.782-1.633-3.906-4.246-4.441-3.953
			c-2.059,1.127-3.609,3.183-5.35,4.893c0.15,0.428,0.303,0.856,0.453,1.284c-2.106-0.79-4.213-1.579-7.339-2.75
			c3.276-2.372,5.591-3.994,7.849-5.693c3.642-2.739,4.848-6.416,3.275-9.771c-2.553-5.444-7.055-8.213-11.428-7.03
			c-4.267,1.154-6.85,5.163-6.627,9.915c0.248,5.318,3.35,10.534,0.636,15.977c-0.019,0.037,0.377,0.28-0.107-0.071
			c2.43-0.667,5.033-2.256,6.146-1.538c5.284,3.41,11.032,3.258,16.689,2.666c4.727-0.494,9.334-2.117,14.022-3.247
			c0.687,1.293,1.379,2.596,2.023,3.81c-0.549,0.227-1.915,0.429-2.005,0.885c-0.771,3.903-3.175,2.863-5.577,2.042
			c-1.361-0.465-2.728-0.916-4.104-1.334c-6.332-1.924-12.894-2.695-18.911,0.189c-3.196,1.533-5.458,2.381-7.691-0.191
			c0,3.463,0,6.889,0,10.583c0.771-1.096,1.462-2.077,2.172-3.086c2.297,0.886,4.386,1.693,5.641,2.177
			c-1.021,2.323-2.407,4.314-2.585,6.408c-0.082,0.968,2.189,2.138,3.429,3.247c0.636-2.192,0.856-3.527,1.464-4.654
			c0.157-0.292,2.184-0.08,2.238,0.155c0.52,2.27,0.801,4.595,1.059,6.3c4.382-5.771,3.542-10.392-3.237-14.594
			c-1.466-0.908-2.76-2.091-4.96-3.783c3.362-1.06,5.605-1.766,6.898-2.173c1.6,2.105,2.633,4.737,3.947,4.886
			c1.813,0.205,3.837-1.466,5.771-2.333c4.366,0.027,6.543,3.354,7.142,7.814c0.432,3.215-1.152,5.412-3.377,6.28
			c-1.23-1.977-2.098-3.798-3.406-5.208c-0.384-0.413-2.77,0.075-2.965,0.612c-0.817,2.25-1.152,4.676-1.707,7.237
			c2.061-0.44,3.135-0.634,4.19-0.904c2.485-0.636,6.492-0.651,7.115-2.105c1.204-2.803,0.876-6.481,0.428-9.691
			c-0.255-1.82-2.008-3.43-3.088-5.134c2.786,1,4.856,2.721,7.132,4.105c1.225,0.744,3.111,1.602,4.132,1.144
			c1.042-0.466,1.509-2.441,1.991-3.837c0.295-0.85,0.145-1.854,0.271-4.262c3.024,2.196,6.226,3.362,7.381,5.589
			c2.832,5.459-3.617,5.654-5.886,8.625C515.684,78.821,520.794,76.646,525.83,80.845z M489.126,89.027
			c0.07,1.369,0.147,2.89,0.226,4.412c-1.778,0.006-3.556,0.029-5.333,0c-0.252-0.004-0.569-0.445-0.74-0.379
			c-1.309,0.498-2.59,1.072-3.879,1.622c1.503,1.24,2.634,1.232,3.351,1.773c4.542,3.425,4.512,3.465,8.227-1.932
			c0.688,1.306,1.273,2.416,1.851,3.509c3.281-1.688,5.648-3.579,5.997-7.573C493.565,93.17,493.373,93.133,489.126,89.027z
			 M77.801,32.618c-1.237-0.117-2.55,0.156-3.279-0.374c-4.588-3.337-4.546-3.396-7.632,1.256c-0.996-0.874-1.969-1.728-3.492-3.064
			c-2,2.503-3.787,4.738-5.573,6.974c0.25,0.526,0.5,1.052,0.75,1.578c3.833-4.513,6.835-2.611,9.255,0.371
			c0.123-1.481-0.174-3.832,0.438-4.098c1.349-0.588,3.338-0.572,4.739,0C76.038,36.499,77.568,35.985,77.801,32.618z"/>
		<path fill-rule="evenodd" clip-rule="evenodd" d="M341.53,62.108c-3.613-1.391-7.177-2.943-10.869-4.075
			c-1.081-0.332-2.568,0.417-3.799,0.865c-2.742,1-5.438,2.124-8.154,3.196c-0.139-0.367-0.278-0.734-0.418-1.102
			c3.038-1.397,6.076-2.794,9.379-4.313c-2.179-3.505-3.926-4.483-7.174-1.461c-2.712,2.523-6.198,4.252-9.473,6.101
			c-0.635,0.358-1.865-0.502-2.832-0.546c-3.54-0.157-7.086-0.311-10.627-0.264c-3.087,0.041-6.17,0.355-9.762,0.58
			c1.039-3.391,2.237-6.588,6.447-6.519c3.098,0.051,6.228,0.707,9.26,1.437c2.707,0.651,5.325,1.976,4.472-2.877
			c-0.146-0.836,0.901-1.882,1.425-2.883c-0.544-0.288-1.176-0.621-1.808-0.954c0.22-0.42,0.44-0.842,0.661-1.263
			c1.453,0.793,3.544,1.226,4.235,2.449c1.745,3.092,0.192,5.329-4.599,7.533c3.513,1.591,10.312-1.787,13.994-6.954
			c-6.117-7.409-12.684-8.586-23.63-3.646c0-4.136-0.181-7.909,0.05-11.656c0.244-3.944,0.015-7.449-4.133-9.428
			c-0.879-0.419-1.456-1.449-2.323-1.918c-1.919-1.041-2.515-4.874-5.827-2.963c-3.111,1.794-4.859,4.505-4.575,8.202
			c0.107,1.396,0.571,2.764,1.146,5.396c2.498-5.237,6.083-6.647,10.269-4.752c1.479,0.67,2.844,2.924,3.073,4.616
			c0.188,1.389-1.384,3.016-2.961,4.045c0.269-1.544,0.538-3.09,0.94-5.404c-3.288,1.813-5.477,5.378-9.346,0.801
			c-0.376,7.764,8.156,16.011-2.971,20.13c1.774,2.347,3.339,4.415,4.903,6.483c-0.278,0.2-0.557,0.401-0.836,0.602
			c-0.249-0.096-0.585-0.12-0.733-0.299c-5.042-6.125-5.816-6.081-10.322,0.64c-1.238,1.847-8.213,2.589-10.277,0.646
			c-2.854-2.688-5.377-1.954-8.182-0.239c-0.827,0.506-1.831,1.049-2.745,1.036c-8.929-0.132-18.009,0.314-25.465-5.605
			c-3.192,1.703-6.172,3.393-9.245,4.891c-1.62,0.789-3.229,0.951-2.986-1.744c3.753-0.375,6.745-1.924,8.555-5.381
			c-7.133-5.824-12.833-5.882-17.567,0.012c3.067,1.833,6.089,3.639,9.111,5.445c-3.262-0.791-6.63-1.299-9.75-2.47
			c-2.101-0.789-3.468-0.875-5.475,0.423c-2.388,1.544-5.327,2.236-8.027,3.297c-0.159-0.376-0.317-0.754-0.477-1.131
			c3.108-1.443,6.217-2.886,9.509-4.415c-2.073-3.539-3.776-4.387-6.904-1.574c-2.774,2.496-6.276,4.193-9.51,6.156
			c-0.356,0.216-1.093-0.062-1.6-0.252c-5.198-1.955-10.343-1.449-15.699,0.696c0.228-0.996,0.352-1.538,0.468-2.047
			c-2.033,0.536-4.103,1.083-6.271,1.654c1.337-8.084,7.226-7.772,14.129-5.906c1.908,0.516,3.859,0.867,5.835,1.303
			c0.346-2.755,0.58-4.615,0.842-6.699c-0.198-0.089-0.827-0.372-1.895-0.853c1.301-0.369,2.652-1.138,3.056-0.794
			c1.198,1.019,3.075,2.818,2.79,3.696c-0.768,2.364-2.521,4.408-3.782,6.419c2.668,0.93,8.773-2.146,12.771-7.242
			c-4.928-6.98-11.553-8.251-23.463-4.193c0-3.986-0.181-7.805,0.05-11.598c0.236-3.872-0.331-7.101-4.179-9.075
			c-1.247-0.64-2.259-1.785-3.292-2.787c-3.52-3.412-7.898-2.279-8.945,2.598c-0.512,2.383-0.089,4.967-0.089,6.781
			c3.27-1.184,6.046-2.584,8.975-3.069c1.293-0.214,3.253,1.118,4.279,2.298c2.042,2.348,1.14,4.845-2.233,6.983
			c0.299-1.661,0.574-3.187,1.076-5.969c-3.48,2.573-5.886,5.464-9.739,0.841c0.431,2.817,0.431,4.371,0.917,5.752
			c3.268,9.271,3.296,9.281-3.383,15.02c1.61,2.065,3.218,4.128,4.825,6.191c-0.351,0.271-0.702,0.542-1.053,0.813
			c-0.686-0.819-1.342-1.665-2.061-2.452c-2.99-3.273-5.815-3.009-8.19,0.746c-2.378,3.76-7.646,4.468-11.582,2.2
			c-1.674-0.965-4.181-0.862-6.254-0.666c-3.04,0.287-6.034,1.607-9.04,1.579c-7.365-0.069-14.752-0.558-20.542-5.545
			c-3.048,1.691-5.673,3.594-8.604,4.606c-1.742,0.602-4.672,0.553-5.826-0.528c-2.289-2.145-3.725-1.608-5.966-0.23
			c-2.007,1.233-4.446,1.763-6.11,2.385c1.882,0.881,4.211,2.501,6.757,2.988c1.871,0.357,4.025-0.769,6.522-1.342
			c0.126,2.992-3.732,7.293,1.113,10.913c2.635-1.266,5.653-2.715,9.503-4.565c-3.338-1.993-5.862-3.499-8.387-5.006
			c0.068-0.323,0.135-0.645,0.203-0.968c2.361,0.652,4.688,1.547,7.093,1.88c2.063,0.286,4.291,0.251,6.309-0.222
			c2.923-0.686,5.724-1.895,8.873-1.99c-3.25,1.356-6.501,2.712-9.751,4.068c-0.262,0.489-0.523,0.978-0.785,1.466
			c1.373,0.92,2.747,1.84,3.457,2.316c4.826-2.455,9.221-4.698,13.626-6.921c0.576-0.291,1.427-0.86,1.773-0.657
			c4.537,2.658,8.991-0.485,13.435-0.034c1.433,0.146,2.75,1.431,4.669,2.501c0.133-0.088,1.05-0.694,2.171-1.434
			c0.077,0.544,0.253,0.933,0.155,1.232c-1.574,4.837-6.618,5.06-13.515,3.345c-1.933-0.48-3.927-0.718-5.977-1.082
			c0,2.193-0.05,3.508,0.018,4.816c0.043,0.829,0.262,1.649,0.448,2.747c-2.172,1.183-4.17,0.327-5.085-2.164
			c-1.632-4.442,2.019-5.633,5.111-7.107c-3.85-1.384-9.437,1.302-13.962,6.551c4.572,7.713,12.748,9.305,23.317,3.932
			c0,3.329,0.15,6.257-0.033,9.165c-0.328,5.207-0.053,10.005,5.255,12.971c2.582,1.442,3.799,6.138,8.101,3.186
			c3.576-2.455,4.464-6.593,2.261-11.622c-2.631,3.658-5.949,5.983-10.198,3.46c-1.483-0.88-2.558-3.257-2.824-5.094
			c-0.173-1.198,1.448-2.656,2.998-3.48c-0.36,1.531-0.719,3.062-1.079,4.593c0.277,0.237,0.554,0.475,0.832,0.712
			c2.485-2.351,4.985-4.58,8.829-1.718c-0.346-1.556-0.537-3.167-1.062-4.661c-3.371-9.591-2.177-10.239,3.591-14.839
			c-1.312-1.553-2.632-3.118-3.954-4.683c0.248-0.218,0.495-0.436,0.742-0.653c1.752,1.399,3.505,2.799,5.541,4.424
			c1.793-2.232,3.549-4.418,5.306-6.604c-0.031-0.513-0.063-1.026-0.094-1.54c3.845,1.005,7.669,2.103,11.546,2.965
			c1.333,0.296,2.936,0.379,4.179-0.08c9.815-3.628,19.197-2.484,28.458,1.975c1.206,0.581,3.088,0.364,4.444-0.102
			c2.706-0.93,5.264-2.289,7.883-3.47c0.183,0.425,0.366,0.849,0.548,1.274c-2.539,1.653-5.078,3.306-8.748,5.695
			c4.004,2.083,6.917,3.598,9.813,5.104c-1.198,1.66-3.223,3.257-3.373,5.014c-0.146,1.712,1.625,3.588,2.654,5.583
			c-2.014,1.48-4.319,1.601-6.152-0.636c-1.858-2.266-0.918-4.178,1.324-5.8c0.971-0.702,1.567-1.92,2.42-3.015
			c-1.456-0.834-2.572-1.436-3.649-2.101c-1.087-0.671-2.135-1.406-3.152-2.08c-3.276,2.479-5.062,4.976-2.593,9.155
			c1.072,1.815,1.257,4.515,0.976,6.701c-0.85,6.597-6.441,8.915-11.888,5.177c-2.693,5.127-1.314,10.309,3.411,11.759
			c1.407,0.431,3.2-0.292,4.774-0.665c0.178-0.042,0.206-1.799,0.094-1.824c-1.366-0.304-2.772-0.434-4.124-0.603
			c1.167-3.071,4.299-5.265,8.241-5.586c4.047-0.329,8.199-0.093,10.198,3.915c0.887,1.776-0.105,4.489-0.245,6.777
			c-1.33-0.115-2.659-0.23-3.896-0.337c1.273-1.621,2.097-2.668,2.92-3.716c-1.575-0.285-3.301-1.106-4.687-0.716
			c-1.708,0.48-3.097,2.028-4.687,3.012c-5.306,3.285-10.42,2.855-13.202-1.057c-3.753-5.279-2.704-11.459,1.973-14.93
			c1.298,1.361,2.335,3.434,3.688,3.666c2.944,0.505,5.054-1.33,5.132-4.416c0.076-3.011-0.405-6.036-0.749-10.426
			c-7.051,6.442-13.713,10.147-21.913,9.671c-1.741,5.568-1.248,6.223,3.437,8.557c1.795,0.895,4.319,3.343,4.086,4.653
			c-0.452,2.544-2.618,4.785-4.56,7.941c-0.635-3.587-0.3-6.324-1.502-7.528c-2.572-2.577-6.009-1.606-8.811,0.1
			c-2.543,1.549-4.626,3.856-7.178,5.386c-1.279,0.767-3.521,1.254-4.686,0.644c-4.149-2.178-6.637-5.779-6.793-9.509
			c-1.527,2.192-3.26,5.183-5.487,7.744c-2.393,2.752-4.772,1.727-7.398-0.386c-2.727-2.193-5.873-4.103-9.144-5.273
			c-1.532-0.548-3.791,0.935-5.72,1.498c0.797,1.649,1.579,3.307,2.398,4.945c0.243,0.486,0.59,0.92,0.951,1.471
			c-3.915,0.317-7.663-2.617-8.112-6.551c-0.602-5.267,4.258-4.843,7.368-6.61c0-2.379,0-4.917,0-7.895
			C119,88,111.614,86.254,106.585,79.299c-3.688,3.909-4.453,8.263-2.382,12.024c1.499,2.722,2.533,3.061,6.753,2.062
			c-0.257-1.156-0.514-2.312-1.001-4.507c2.09,1.486,3.686,2.326,4.904,3.544c3.542,3.54,3.77,8.987,0.732,13.052
			c-3.128,4.186-7.006,4.115-15.956-0.292c-0.134,0.035-0.282,0.044-0.4,0.108c-1.857,1.01-3.658,2.164-5.615,2.908
			c-0.325,0.123-2.075-1.81-1.886-2.323c0.793-2.164,1.591-4.753,3.265-6.085c4.802-3.821,12.938-1.617,16.055,4.382
			c-1.618-0.519-2.851-0.914-4.084-1.31c-0.23,0.218-0.46,0.436-0.69,0.654c0.631,0.815,1.392,2.393,1.872,2.312
			c1.848-0.314,4.056-0.692,5.303-1.899c2.717-2.631,2.249-5.93,0.678-9.346c-0.658,0.167-1.224,0.197-1.672,0.441
			c-5.087,2.775-10.101,0.583-10.846-5.185c-0.354-2.739-0.235-6.065,1.035-8.372c2.328-4.227,0.714-6.313-2.769-8.209
			c-2.384,1.278-4.771,2.558-7.748,4.153c0.924,1.056,1.986,1.935,2.608,3.059c0.931,1.681,2.625,4.142,2.045,5.165
			c-0.802,1.412-3.418,1.792-5.437,2.128c3.133-4.607,2.858-6.12-2.213-9.767c0,1.937,0.07,3.609-0.014,5.275
			c-0.206,4.101-2.533,6.771-6.269,7.879c-3.55,1.053-6.781,0.167-9.187-2.99c-4.702-6.169-4.057-10.321,2.366-14.773
			c1.764-1.222,3.481-2.514,6.098-4.411c-2.695-1.204-4.74-2.118-6.785-3.031c0.153,0.398,0.305,0.796,0.458,1.195
			c-1.885,1.713-3.572,3.833-5.771,4.899c-0.685,0.332-2.752-2.188-4.615-3.766c-5.759,1.477-8.619,7.731-5.452,12.577
			c1.927-0.758,4.958-2.48,5.35-2.009c1.503,1.807,2.366,4.259,3.042,6.594c0.323,1.115-0.354,2.501-0.495,3.774
			c-0.145,1.309-0.188,2.629-0.276,3.945c1.436-0.122,3.014,0.101,4.281-0.427c4.015-1.674,6.176-0.218,4.882,5.341
			c-0.409-1.139-0.818-2.278-1.221-3.399c-5.93,5.489-6.323,5.548-7.825,2.477c-2.501,0-4.839,0.661-6.43-0.148
			c-2.663-1.354-4.692-3.72-3.927-6.984c2.046,0.766,4.359,2.493,5.744,1.931c1.714-0.695,2.657-3.289,4.112-5.311
			c-12.441-2.355-13.862-8.548-5.803-19.96c-2.309,1.942-4.641,3.859-6.921,5.834c-3.097,2.683-5.491,1.952-6.728-1.868
			c-0.433-1.335-1.583-2.438-2.406-3.647c-1.576,1.631-4.115,3.099-4.431,4.946c-0.264,1.546,1.938,3.646,3.313,5.279
			c0.579,0.688,1.835,0.804,2.761,2.079c-6.42-1.586-12.485-1.716-18.212,3.312c1.03-5.239,1.756-5.817,6.775-6.406
			c-0.382-2.471-0.765-4.95-1.258-8.132c-3.772,0.928-8.196,2.268-10.251-3.192c1.439-1.347,3.053-3.09,4.919-4.5
			c0.814-0.615,2.347-1.043,3.203-0.694c2.585,1.054,3.79,0.75,3.692-2.334c-0.05-1.555,0.351-3.124,0.512-4.4
			c-1.902-1.028-3.722-2.013-5.542-2.997c0.167-0.693,0.333-1.386,0.5-2.078c5.062,4.231,10.149,1.856,15.536,1.231
			c-2.532,2.535-8.396,3.008-5.939,8.126c1.093,2.276,4.31,3.532,7.07,5.638c1.011-10.802,3.871-9.891,9.55-4.877
			c1.175,1.038,2.705,1.673,4.608,2.816c-1.016-2.227-1.667-3.654-2.319-5.081l-0.086,0.074c2.221,1.583,4.441,3.164,5.713,4.07
			c2.696-1.616,4.635-3.697,6.109-3.409c1.529,0.299,2.609,2.894,4.463,5.205c1.292-0.446,3.623-1.25,7.206-2.487
			c-2.924-1.908-4.907-3.132-6.816-4.464c-2.901-2.024-4.602-4.526-4.008-8.393c0.653-4.253,2.607-7.294,6.728-8.633
			c1.027-0.333,2.288,0.049,4.029,0.131c-2.869,1.131-5.468,1.463-6.896,2.933c-1.212,1.248-1.2,3.796-1.405,5.802
			c-0.033,0.326,1.621,0.824,2.495,1.242c0.687-1.489,1.374-2.979,2.072-4.496c5.17,1.936,5.336,4.551,0.039,9.016
			c2.23,0.836,4.333,1.625,6.512,2.441c0.688-1.113,1.309-2.117,2.086-3.376c0.21,3.669,0.396,6.911,0.642,11.176
			c4.043-2.499,6.903-4.266,10.856-6.709c-3.877-2.178-6.636-3.728-9.648-5.419c1.116-1.58,3.134-3.203,3.247-4.949
			c0.108-1.679-1.754-3.486-2.868-5.444c2.447-1.768,4.86-1.175,6.584,1.089c1.936,2.544,0.161,4.095-2.069,5.429
			c-0.921,0.551-1.482,1.705-2.384,2.798c2.474,1.463,4.774,2.824,7.011,4.146c3.99-2.355,5.218-5.077,2.912-9.473
			c-1.1-2.096-1.125-5.122-0.713-7.571c0.919-5.469,6.248-7.152,11.644-3.995c2.867-5.137,1.43-10.457-3.453-11.971
			c-1.339-0.416-3.028,0.027-4.47,0.408c-0.348,0.092-0.665,2.098-0.452,2.212c1.195,0.644,2.558,0.978,3.826,1.405
			c-3.57,6.944-14.226,6.6-17.608,1.85c-1.158-1.626-0.657-4.558-0.497-6.865c0.024-0.346,2.344-0.532,4.629-1.005
			c-2.053,2.013-3.069,3.009-4.086,4.005c1.829,0.459,3.734,1.458,5.464,1.216c1.512-0.212,2.813-1.844,4.234-2.809
			c4.417-2.998,8.888-3.238,11.999-0.669c3.401,2.809,4.486,8.58,2.299,13.078c-0.719,1.478-1.85,2.756-2.32,3.439
			c-1.932-1.634-3.623-4.182-5.046-4.04c-3.148,0.313-4.789,3.116-4.593,6.315c0.157,2.566,0.924,5.096,1.497,8.036
			c11.633-8.403,12.546-8.714,21.833-8.853c1.697-5.872,1.341-6.172-3.682-8.601c-1.746-0.844-3.907-3.268-3.825-4.864
			c0.116-2.258,2.137-4.418,3.687-7.246c0.55,3.138,0.259,5.755,1.322,6.539c1.613,1.191,4.488,2.01,6.251,1.378
			c3.534-1.266,7.219-3.076,9.833-5.675c2.719-2.705,4.711-2.375,6.917-0.27c2.036,1.943,3.679,4.298,5.615,6.616
			c1.417-1.679,3.001-3.769,4.809-5.645c2.545-2.641,4.992-2.676,7.744,0.126c1.877,1.912,4.222,3.848,6.704,4.551
			c2.492,0.706,5.414-0.102,8.148-0.246c-0.441-2.301-0.882-4.603-1.307-6.823c2.96-0.103,5.112,1.849,5.872,5.755
			c0.678,3.489-0.994,5.354-4.082,5.842c-2.693,0.424-3.267,1.75-3.015,4.137c0.176,1.677,0.034,3.387,0.034,5.49
			c8.573-0.669,15.519,1.743,20.711,8.097c3.743-3.589,4.658-8.299,1.998-12.101c-0.965-1.378-3.186-1.878-4.833-2.779
			c-0.497,1.443-0.994,2.886-1.489,4.326c-5.501-2.076-8.057-7.31-5.864-13.029c2.442-6.367,6.166-6.79,17.619-1.98
			c0.169-0.182,0.323-0.414,0.534-0.563c1.401-0.998,2.721-2.216,4.277-2.83c0.514-0.203,2.425,1.258,2.36,1.799
			c-0.24,2.017-0.444,4.563-1.728,5.837c-4.838,4.8-13.202,3.203-17.073-3.199c1.572,0.303,2.906,0.56,4.241,0.817
			c0.199-0.357,0.398-0.715,0.597-1.073c-1.097-0.766-2.474-2.381-3.236-2.13c-1.888,0.622-4.037,1.734-5.094,3.31
			c-1.79,2.668-1.589,5.696,0.936,8.448c3.178-2.237,6.355-2.785,9.292,0.212c3.625,3.7,3.714,8.24,1.703,12.431
			c-1.908,3.974-2.064,6.765,2.376,8.723c2.419-1.364,4.994-2.817,7.61-4.293c-1.082-3.254-6.93-4.012-4.459-8.424
			c0.76-1.358,3.518-1.597,5.964-2.594c-1.165,2.715-2.775,4.641-2.392,6.009c0.553,1.976,2.552,3.547,3.901,5.25
			c5.014-3.583,5.037-4.51,0.575-9.079c2.181-2.076,4.563-1.941,6.266,0.096c4.208,5.03-3.301,5.468-3.635,8.969
			c2.189,1.29,4.516,2.661,7.158,4.217c1.429-1.613,2.837-3.203,4.346-4.906c-2.336-5.512-5.692-11.157-0.074-16.576
			c2.467-2.379,5.364-2.105,8.98,0.267c3.041-5.233,1.546-10.672-3.537-12.101c-1.311-0.368-2.975,0.18-4.361,0.648
			c-0.39,0.131-0.636,2.107-0.495,2.167c1.29,0.547,2.679,0.858,3.993,1.225c-3.271,6.772-13.989,6.819-17.605,1.92
			c-1.193-1.616-0.395-4.763-0.226-7.191c0.011-0.159,2.43-0.151,4.042-0.237c-1.697,1.452-2.7,2.31-3.704,3.168
			c1.284,0.642,2.524,1.66,3.863,1.811c1.113,0.125,2.419-0.631,3.498-1.247c1.113-0.635,1.981-1.691,3.082-2.354
			c4.966-2.989,10.186-2.297,12.716,1.607c3.476,5.365,2.384,11.645-2.034,14.713c-1.343-1.467-3.252-4.185-3.721-3.956
			c-1.979,0.967-4.609,2.583-4.993,4.39c-0.631,2.966,0.297,6.264,0.669,10.609c7.271-6.127,13.725-10.539,22.523-9.205
			c0-2.711,0-4.955,0-7.499c-3.277-1.245-8.129-1.366-8.05-6.144c0.038-2.304,2.452-4.569,3.791-6.852
			c0.328,0.237,0.655,0.475,0.983,0.712c0,1.73-0.702,4.21,0.161,5.018c1.363,1.274,4.104,2.392,5.68,1.858
			c3.695-1.252,7.724-2.857,10.36-5.55c3.195-3.264,5.424-2.561,7.904-0.046c1.889,1.916,3.345,4.258,4.799,6.155
			c1.913-2.033,3.862-4.685,6.397-6.532c1.111-0.809,3.675-0.49,5.125,0.23c2.276,1.13,4.049,3.232,6.253,4.562
			c3.055,1.844,6.767,3.226,9.456,0.267c1.007-1.107-0.522-4.517-0.92-7.036c3.684,0.257,5.356,3.238,5.93,6.96
			c0.555,3.6-2.114,4.477-4.925,5.36c-0.973,0.306-2.078,1.826-2.187,2.888c-0.2,1.957,0.292,3.984,0.534,6.364
			c7.997-0.533,14.995,1.747,20.147,8.185c3.846-3.886,4.554-9.435,1.438-12.88c-1.018-1.125-3.148-1.246-4.771-1.826
			c-0.202,1.366-0.404,2.732-0.653,4.41c-3.231-0.896-5.682-3.267-6.49-6.954c-0.882-4.024-0.07-7.838,3.32-10.56
			c5.407-4.34,9.636,0.269,14.156,2.119c0.309-0.171,0.671-0.245,0.777-0.45c1.409-2.72,3.662-4.325,6.201-2.129
			c2.474,2.14,0.988,4.944-0.877,6.859c-4.703,4.831-13.546,3.34-16.98-2.837c1.426,0.129,2.77,0.25,4.787,0.433
			c-2.008-3.745-4.213-3.743-6.728-2.137c-3.38,2.16-3.78,6.56-0.877,10.759c3.277-2.495,6.719-2.708,9.509,0.563
			c4.701,5.512,2.192,11.033-0.616,16.84c1.226,1.3,2.576,2.733,3.954,4.195c2.783-1.521,5.394-2.947,8.1-4.427
			c-0.817-3.302-7.071-3.988-4.595-8.513c0.754-1.378,3.743-1.533,6.133-1.723c-2.895,2.57-4.06,5.112-1.049,7.753
			c1.086,0.953,3.696,1.776,4.496,1.175c4.121-3.096,1.128-5.48-2.107-7.522c3.303-2.202,5.786-1.737,7.447,0.563
			c1.72,2.379,0.433,4.194-2.048,5.473c-0.925,0.477-1.467,1.695-2.357,2.789c2.519,1.482,4.819,2.837,7.339,4.32
			c1.553-1.671,2.989-3.218,4.474-4.815c-2.529-5.436-5.241-10.84-0.579-16.193c2.367-2.717,5.275-2.582,9.695-0.219
			c2.619-5.348,1.427-10.067-3.275-11.771c-1.398-0.507-3.229-0.008-4.802,0.321c-0.294,0.061-0.601,2.101-0.388,2.208
			c1.23,0.62,2.615,0.935,3.894,1.335c-3.748,5.721-11.839,7.021-17.076,2.685c-2.843-2.353-1.822-5.197-1.024-7.854
			c0.148-0.496,2.366-0.37,3.497,0.271c-1.049,0.76-2.097,1.52-3.146,2.28c1.232,0.691,2.404,1.743,3.716,1.962
			c1.112,0.186,2.45-0.452,3.565-0.984c0.882-0.421,1.539-1.288,2.361-1.864c5.175-3.626,10.685-3.382,13.533,0.572
			c3.539,4.913,2.436,11.938-1.682,15.02c-1.623-1.512-3.068-2.857-4.514-4.203c-1.635,1.962-4.158,3.719-4.671,5.94
			c-0.582,2.526,0.631,5.466,1.179,8.958c6.995-5.467,13.164-10.35,21.623-8.745c1.974-6.515,1.875-6.315-3.694-9.092
			c-1.622-0.809-3.611-3.22-3.464-4.701c0.231-2.326,2.133-4.486,3.655-7.328c0.609,3.159,0.384,6.048,1.455,6.658
			c2.015,1.146,5.086,1.864,7.161,1.148c3.268-1.128,6.512-3.155,8.955-5.608c2.481-2.492,4.375-2.498,6.543-0.344
			c2.099,2.082,3.922,4.441,5.784,6.584c1.905-1.987,3.968-4.23,6.135-6.369c1.75-1.728,3.419-1.466,5.307,0.12
			c2.415,2.027,4.874,4.366,7.736,5.384c2.407,0.856,5.419,0.015,8.162-0.075c-0.377-2.321-0.754-4.641-1.195-7.358
			c2.96,0.285,4.911,2.394,5.775,5.807c0.885,3.496-0.646,5.426-4.008,6.346c-6.1,1.67-1.345,6.139-3.263,9.566
			c9.05-0.756,15.962,1.762,21.163,8.136c3.93-4.449,4.563-9.012,1.521-12.721c-0.981-1.198-3.091-1.472-4.686-2.168
			c-0.375,1.38-0.75,2.761-1.127,4.147c-5.21-1.472-8.148-6.873-6.21-12.3c2.519-7.05,6.152-7.612,17.774-2.641
			c0.511-0.724,0.898-1.899,1.619-2.163c1.469-0.539,3.373-1.171,4.602-0.631c0.837,0.368,1.578,3.106,1.045,3.995
			c-1.176,1.961-2.917,3.923-4.907,4.989c-4.477,2.398-10.959-0.045-13.798-4.996c1.477,0.256,2.725,0.472,3.973,0.689
			c0.205-0.323,0.41-0.646,0.615-0.969c-1.049-0.793-2.229-2.363-3.117-2.212c-1.695,0.288-3.751,1.174-4.71,2.498
			c-1.986,2.742-2.078,5.893,0.315,9.112c3.6-2.16,7.277-2.743,10.188,1.005c2.961,3.815,2.986,8.293,0.869,12.257
			c-2.152,4.029-1.177,6.36,2.401,8.236c2.536-1.386,5.031-2.75,7.584-4.145c-0.485-3.517-7.16-4.092-4.288-8.667
			c0.842-1.341,3.573-1.496,5.557-1.811c-3.153,4.691-3.153,4.691,2.089,11.08c-3.045,1.423-6.031,2.819-10.085,4.713
			c3.785,2.305,6.676,4.064,9.565,5.824c-0.161,0.351-0.323,0.702-0.483,1.054c-2.974-1.058-5.894-2.335-8.943-3.079
			c-1.535-0.374-3.396-0.055-4.951,0.442c-2.778,0.887-5.437,2.146-8.145,3.25c-0.167-0.39-0.334-0.78-0.5-1.169
			c3.064-1.42,6.129-2.841,9.608-4.453c-2.213-3.215-3.833-4.573-7.162-1.491c-2.735,2.533-6.269,4.221-9.524,6.154
			c-0.438,0.259-1.35-0.182-2.005-0.406c-4.894-1.668-9.697-1.47-14.823,0.799c-0.055-0.694-0.099-1.255-0.146-1.855
			c-1.85,0.397-3.832,0.823-6.177,1.326c0.908-3.945,2.604-6.903,7.018-6.696c2.82,0.132,5.602,0.986,8.415,1.425
			c1.65,0.257,3.328,0.333,5.071,0.498c0-3.067,0-5.136,0-7.874c1.427-0.969,3.291-0.376,4.246,2.118
			c1.639,4.276-1.188,6.015-4.716,7.213c3.362,1.794,9.371-1.09,13.794-6.46c-4.613-7.209-11.657-8.62-23.255-4.347
			c0-4.431-0.146-8.682,0.048-12.917c0.147-3.183-0.653-5.573-3.597-7.19c-1.361-0.748-2.361-2.126-3.666-3.011
			c-1.517-1.028-4.065-2.96-4.633-2.521c-1.995,1.545-3.789,3.748-4.772,6.075c-0.748,1.77-0.148,4.108,0.365,6.512
			c2.996-4.046,6.575-5.775,10.864-3.545c1.405,0.731,2.494,3.063,2.7,4.786c0.154,1.286-1.342,2.77-2.764,3.708
			c0.237-1.525,0.476-3.05,0.912-5.848c-3.45,2.738-5.694,5.551-9.576,2.378c0.373,1.79,0.496,3.678,1.159,5.353
			c3.051,7.704,2.629,9.335-3.938,13.858c1.626,2.074,3.285,4.192,4.945,6.31c-0.283,0.207-0.568,0.413-0.852,0.62
			c-5.92-6.06-5.495-5.629-11.504,0.3c-1.805,1.781-6.703,0.56-10.177,0.462c-2.096-0.059-4.465-1.417-6.215-0.794
			c-10.056,3.577-19.413,1.909-28.523-2.909c-0.504-0.266-0.949-0.644-1.396-0.952c-2.936,1.623-5.737,3.378-8.729,4.706
			c-0.979,0.434-2.452-0.243-3.707-0.419c3.042-1.87,6.092-3.733,9.396-5.751c-7.109-6.535-13.394-6.633-18.246-0.69
			c2.166,1.211,4.357,2.267,6.349,3.618C339.978,59.888,340.675,61.115,341.53,62.108z M275.283,32.429
			c2.22-4.771,0.275-8.083-2.612-11.206c-1.995-2.158-3.841-2.154-5.793,0.056c-2.097,2.373-4.532,4.494-6.327,7.069
			c-1.159,1.664-1.947,3.933-1.995,5.952c-0.098,4.169,0.411,8.353,0.69,12.854c-12.155-4.596-19.844-3.143-24.522,4.169
			c5.069,6.077,10.62,8.596,14.701,6.569c-3.272-1.078-5.988-2.689-5.598-6.618c0.25-2.507,1.046-4.843,3.725-4.828
			c0.929,3.265,1.788,6.287,2.952,10.38c1.708-0.574,4.262-1.146,6.555-2.256c5.811-2.812,10.25-1.409,13.133,4.406
			c0.356,0.717,0.832,1.375,1.463,2.404c1.126-1.367,1.94-2.509,2.913-3.497c1.057-1.074,2.259-2.004,3.719-3.278
			c-1.263-0.636-1.969-1.082-2.735-1.361c-4.685-1.703-6.134-4.02-5.156-8.858c0.336-1.658,1.423-3.158,1.804-4.815
			c0.541-2.353,0.747-4.782,1.096-7.179c-3.97,2.357-3.97,2.357-10.835-0.943c0.198,1.603,0.361,2.912,0.596,4.809
			c-3.159-2.074-2.938-3.947-1.022-5.929C266.208,26.013,269.3,26.453,275.283,32.429z M155.035,94.403
			c-0.257,1.581-1.112,3.298-0.595,4.317c1.436,2.825,3.219,5.584,5.441,7.79c0.375,0.372,3.72-2,5.496-3.362
			c1.59-1.217,3.172-2.612,4.271-4.254c1.078-1.608,2.042-3.592,2.177-5.474c0.314-4.375,0.1-8.789,0.1-13.939
			c9.562,7.03,17.087,3.085,24.577-3.75c-4.368-4.172-8.274-8.197-14.737-7.429c2.977,2.044,5.907,4.176,4.797,8.209
			c-0.455,1.65-2.214,2.94-3.648,4.729c-0.866-4.154-1.499-7.188-2.351-11.275c-2.103,0.669-5.037,1.165-7.517,2.5
			c-3.383,1.823-6.578,1.492-9.308-0.498c-2.045-1.491-3.324-4.034-5.014-6.199c-1.905,2.059-3.793,4.1-5.627,6.083
			c0.244,0.473,0.306,0.832,0.51,0.954c8.096,4.877,8.159,5.493,4.32,14.447c-0.897,2.092-0.507,4.736-0.718,7.246
			c2.472-0.797,4.077-1.83,5.529-1.646c1.638,0.207,3.139,1.508,5.299,2.651c-0.171-1.92-0.273-3.073-0.407-4.577
			c2.886,2.615,2.968,3.248,1.041,5.423C164.971,100.524,161.226,100.047,155.035,94.403z M152.551,54.487
			c-1.843-0.706-2.752-1.045-3.655-1.401c-4.2-1.657-5.737-4.54-4.52-8.903c0.498-1.786,1.646-3.399,2.071-5.193
			c0.517-2.178,0.583-4.464,0.823-6.526c-2.526,0.741-4.203,1.756-5.693,1.532c-1.691-0.254-3.216-1.616-5.897-3.094
			c0.831,2.483,1.208,3.61,1.748,5.224c-2.964-2.166-3.294-3.467-1.811-5.398c3.464-4.512,7.284-4.14,13.603,1.324
			c1.346-4.349,1.049-6.533-1.301-9.538c-2.974-3.803-4.627-3.832-7.813-0.247c-1.723,1.939-3.805,3.613-5.243,5.734
			c-1.167,1.72-2.198,3.91-2.26,5.923c-0.133,4.264,0.407,8.548,0.737,13.882c-9.853-7.156-17.668-3.795-25.04,3.031
			c5.234,6.411,11.221,9.126,14.071,7.639c-1.475-2.143-3.725-4.231-4.339-6.723c-0.401-1.627,1.573-3.839,2.482-5.79
			c0.317,0.204,0.633,0.408,0.95,0.612c0.907,3.118,1.814,6.235,2.952,10.146c1.234-0.299,3.211-0.475,4.924-1.242
			c8.693-3.894,11.39-3.05,15.731,5.189c0.09,0.172,0.512,0.169,1.042,0.326c0.807-1.034,1.592-2.226,2.565-3.236
			C149.63,56.773,150.772,55.972,152.551,54.487z M404.371,54.464c-2.014-0.82-3.341-1.279-4.598-1.887
			c-4.113-1.987-4.854-5.519-2.432-11.148c1.282-2.981,3.208-5.918,1.302-8.867c-1.822,0.598-3.467,1.68-4.935,1.477
			c-1.718-0.238-3.28-1.596-5.761-2.923c0.666,2.248,1.009,3.407,1.353,4.567c-0.53,0.086-1.062,0.172-1.592,0.259
			c-0.175-1.572-1.059-3.667-0.369-4.601c1.2-1.625,3.53-3.708,5.099-3.494c3.155,0.431,6.117,2.279,9.7,3.769
			c-0.189-1.929,0.052-4.288-0.703-6.267c-2.48-6.499-5.777-7.032-10.379-1.986c-1.262,1.384-2.391,2.96-3.866,4.063
			c-2.505,1.871-3.126,4.15-2.765,7.139c0.492,4.049,0.627,8.141,0.882,11.744c-4.646-0.869-9.058-2.783-13.064-2.146
			c-4.242,0.675-8.099,3.775-12.244,5.877c4.686,6.784,11.229,9.886,14.349,8.423c-1.457-2.074-3.73-4.131-4.352-6.604
			c-0.416-1.656,1.514-3.902,2.394-5.884c0.362,0.175,0.724,0.351,1.086,0.525c0.882,3.143,1.763,6.286,2.863,10.207
			c1.214-0.278,3.205-0.417,4.92-1.18c8.824-3.927,11.241-3.197,15.757,5.083c0.101,0.186,0.492,0.213,0.748,0.313
			c-0.364-0.375-0.729-0.751-1.094-1.126C399.004,58.181,401.337,56.565,404.371,54.464z M79.817,86.727
			c-0.96-1.614-1.644-3.063-2.646-4.238c-0.256-0.3-2.094,0.077-2.222,0.466c-0.374,1.137-0.619,2.563-0.249,3.647
			c0.828,2.427,6.102,4.199,8.721,2.654c2.117-1.25,5.044-2.75,2.837-6.324c-0.313-0.505-0.055-1.702,0.363-2.262
			c2.053-2.749,0.745-4.682-1.207-6.6c-2.082,1.092-4.005,2.102-6.026,3.162C84.558,80.983,84.58,84.406,79.817,86.727z
			 M65.559,63.575c-2.497-0.86-4.976-1.963-7.572-2.521c-1.765-0.379-4.322-0.723-5.404,0.213c-1.679,1.452-3.05,3.948-0.563,6.574
			C56.391,66.463,60.883,65.048,65.559,63.575z M368.906,61.602c0.164-0.461,0.329-0.923,0.493-1.385
			c-3.686-2.536-7.372-5.071-11.215-7.715c-1.217,1.282-2.259,2.38-4.332,4.564C359.551,58.783,364.229,60.192,368.906,61.602z
			 M228.629,55.746c0.034,0.516,0.068,1.033,0.102,1.549c4.763,1.43,9.525,2.86,14.288,4.29c0.149-0.446,0.297-0.892,0.446-1.337
			c-3.679-2.519-7.356-5.037-11.003-7.534C231.057,53.825,229.843,54.785,228.629,55.746z M116.942,61.703
			c0.164-0.501,0.328-1.003,0.492-1.505c-3.701-2.511-7.402-5.022-11.316-7.678c-1.199,1.348-2.184,2.456-4.058,4.563
			C107.653,58.818,112.298,60.26,116.942,61.703z M201.658,70.701c-4.519-4.283-9.285-4.881-14.905-4.63
			c4.2,2.95,7.793,5.473,11.681,8.204C199.389,73.216,200.399,72.096,201.658,70.701z M44.687,64.065
			c-7.037-3.865-8.445-3.832-13.369,0.124C35.64,68.551,39.914,64.828,44.687,64.065z M153.801,49.885
			c2.434-3.634,1.143-6.691-1.441-9.715C149.02,44.225,151.61,47.056,153.801,49.885z M279.168,39.235
			c-3.639,4.627-2.735,7.492,1.86,9.706C280.468,46.017,279.907,43.094,279.168,39.235z M404.487,40.002
			c-3.09,3.923-1.742,6.765,1.384,9.267C408.658,45.795,406.335,43.114,404.487,40.002z M151.63,87.049
			c3.941-5.045,3.941-5.045-1.801-8.345C150.406,81.377,150.982,84.05,151.63,87.049z"/>
		<path fill-rule="evenodd" clip-rule="evenodd" d="M341.737,75.75c2.881-1.034,5.762-2.067,8.643-3.1
			c-0.002-0.421-0.003-0.843-0.004-1.264c-2.5-1.503-5-3.007-7.499-4.51c0.062-0.315,0.123-0.63,0.185-0.945
			c2.104,0.516,4.492,0.569,6.249,1.65c3.109,1.914,5.463,1.132,8.345-0.484c2.241-1.257,5.044-1.513,7.787-1.552
			c-3.31,1.401-6.618,2.803-10.844,4.592c1.957,1.544,3.244,2.56,3.924,3.097c4.608-2.274,9.019-4.456,13.437-6.625
			c0.572-0.281,1.437-0.875,1.732-0.676c3.938,2.64,7.965-0.661,11.894,0.271c1.908,0.453,3.817,0.906,5.726,1.358
			c-0.067,0.409-0.135,0.818-0.201,1.227c0.882-0.565,1.764-1.129,2.922-1.87c-1.577,5.434-6.924,7.013-13.461,4.589
			c-1.836-0.681-3.902-0.74-5.859-1.083c0,2.979,0,4.992,0,7.739c-1.354,0.887-3.29,0.434-4.462-1.794
			c-2.526-4.8,1.81-6.016,4.561-8.166c-5.872,0.004-10.062,3.027-13.813,6.944c4.971,7.792,12.627,9.271,23.467,4.155
			c0,3.574,0.138,6.806-0.033,10.021c-0.247,4.638-0.048,8.884,4.795,11.463c2.726,1.451,3.813,6.49,8.336,3.864
			c3.752-2.179,4.629-5.927,2.764-12.065c-2.878,4.042-6.455,6.322-10.909,3.59c-1.385-0.85-2.384-3.199-2.51-4.938
			c-0.092-1.269,1.535-2.662,3.098-3.46c-0.327,1.519-0.655,3.037-0.982,4.555c3.384-1.437,5.84-4.135,9.563-0.93
			c-0.285-1.467-0.383-3.002-0.885-4.392c-3.488-9.671-2.549-10.295,3.453-15.225c-1.302-1.488-2.607-2.979-3.915-4.47
			c0.237-0.249,0.475-0.498,0.713-0.747c1.764,1.434,3.528,2.868,5.551,4.512c1.697-2.201,3.48-4.513,5.264-6.825
			c-0.007-0.489-0.014-0.979-0.021-1.468c3.843,1.01,7.665,2.117,11.541,2.979c1.33,0.295,2.938,0.353,4.178-0.117
			c9.696-3.664,19.048-2.515,28.059,2.027c2.116,1.067,3.379,1.094,5.329-0.264c2.172-1.512,4.825-2.334,7.27-3.457
			c0.229,0.443,0.459,0.887,0.687,1.331c-2.584,1.713-5.169,3.427-8.786,5.824c3.985,2.062,6.917,3.578,9.813,5.075
			c-4.938,5.667-4.938,5.667-0.223,10.289c-2.515,1.727-4.979,1.972-6.789-0.541c-1.623-2.252-0.704-4.268,1.656-5.786
			c0.872-0.561,1.334-1.756,2.137-2.877c-1.321-0.747-2.427-1.322-3.48-1.98c-1.091-0.68-2.133-1.439-3.155-2.137
			c-3.414,2.36-5.068,4.857-2.762,9.081c1.084,1.982,1.291,4.822,0.947,7.132c-0.933,6.285-6.377,8.366-11.808,4.81
			c-2.596,5.062-1.877,9.035,2.415,11.145c1.483,0.729,3.496,0.47,5.262,0.428c0.225-0.005,0.414-1.436,0.619-2.207
			c-1.463-0.295-2.926-0.59-4.357-0.879c2.087-6.221,14.063-7.479,17.834-2.712c1.111,1.405,1.707,3.646,1.632,5.467
			c-0.137,3.313-1.621,3.668-5.267,1.22c0.835-0.278,1.365-0.466,1.903-0.63c0.519-0.159,1.044-0.293,1.961-0.548
			c-1.382-3.627-3.733-3.21-6.153-1.959c-2.157,1.116-4.106,2.637-6.267,3.745c-3.544,1.818-7.271,1.85-9.924-1.266
			c-2.668-3.135-3.952-7.079-2.225-11.225c0.79-1.898,2.142-3.562,2.73-4.511c2.029,1.49,3.528,3.488,5.13,3.575
			c3.068,0.167,4.515-2.367,4.488-5.224c-0.025-2.742-0.596-5.478-1.081-9.494c-6.875,6.433-13.613,9.928-21.768,9.632
			c-1.718,5.492-1.238,6.113,3.47,8.5c1.793,0.91,3.582,2.908,4.193,4.793c0.737,2.275-1.928,4.899-4.966,6.149
			c-0.282-1.894,0.1-4.471-1.011-5.719c-2.32-2.606-5.678-1.901-8.396-0.36c-2.716,1.541-5.398,3.385-7.533,5.631
			c-1.993,2.097-3.518,1.987-5.56,0.502c-3.621-2.635-6.221-5.87-6.565-10.827c-0.108,4.887-2.255,8.31-6.475,10.073
			c-1.252,0.523-3.252,0.355-4.444-0.319c-2.349-1.326-4.23-3.475-6.575-4.807c-1.677-0.952-3.785-1.469-5.72-1.525
			c-1.319-0.038-3.383,0.741-3.815,1.726c-0.452,1.03,0.527,2.795,1.115,4.137c0.356,0.811,1.158,1.425,1.964,2.367
			c-4.358-0.07-7.378-2.709-8.082-6.58c-0.676-3.716,1.983-4.852,4.622-5.662c5.53-1.697,1.6-5.695,2.872-9.052
			c-8.703,0.479-15.804-1.943-21.068-8.468c-3.618,4.579-4.435,8.708-1.854,12.12c1.177,1.558,3.588,2.182,5.439,3.23
			c0.304-0.389,0.607-0.778,0.911-1.167c-0.189-1.158-0.379-2.316-0.687-4.2c1.524,0.887,2.765,1.419,3.78,2.231
			c4.168,3.338,4.938,9.011,1.946,13.647c-2.914,4.517-7.383,4.514-15.312,0.46c-2.731,1.096-4.742,2.161-6.88,2.587
			c-0.563,0.112-2.376-2.204-2.15-2.632c1.211-2.296,2.451-5.001,4.486-6.353c4.618-3.067,11.967-0.642,15.088,4.818
			c-1.682-0.437-2.991-0.776-4.301-1.117c-0.226,0.285-0.452,0.57-0.68,0.855c0.867,0.769,1.898,2.305,2.567,2.161
			c1.832-0.396,4.023-1.072,5.144-2.412c2.224-2.66,1.896-5.838,0.075-9.084c-3.456,1.98-7.038,3.347-10.16-0.155
			c-3.376-3.788-3.372-8.515-1.293-12.566c2.053-4.002,1.481-6.336-2.502-8.433c-2.307,1.213-4.798,2.524-7.4,3.893
			c0.248,3.589,7.341,4.389,3.962,9.09c-0.893,1.242-3.421,1.308-5.686,1.546c3.843-3.398,3.27-6.165-0.109-9.016
			c-0.699-0.59-0.675-2.037-0.983-3.086C341.721,75.716,341.737,75.75,341.737,75.75z M404.995,71.898
			c0.348,0.453,0.529,0.895,0.858,1.085c7.736,4.486,7.892,5.422,4.111,14.196c-0.906,2.103-0.616,4.721-0.893,7.25
			c2.538-0.762,4.168-1.755,5.641-1.56c1.649,0.219,3.156,1.514,5.314,2.652c-0.153-1.886-0.251-3.077-0.372-4.559
			c2.784,2.511,2.886,3.239,1.026,5.373c-3.61,4.145-7.53,3.657-13.327-1.652c-2.143,4.132-0.62,7.376,2.308,10.475
			c2.179,2.307,4.016,2.328,6.143,0.041c2.251-2.418,4.779-4.593,6.874-7.132c0.868-1.054,1.24-2.767,1.29-4.2
			c0.159-4.531,0.06-9.071,0.06-12.921c4.079,0.641,8.493,2.381,12.473,1.674c4.197-0.746,7.98-3.827,12.071-5.953
			c-4.514-6.319-10.3-9.311-13.666-8.483c1.268,2.675,3.092,5.426,3.726,8.427c0.24,1.138-2.261,2.855-3.792,4.633
			c-0.834-4.181-1.461-7.331-2.278-11.425c-2.328,0.811-5.219,1.47-7.767,2.791c-3.233,1.676-6.353,1.322-8.942-0.531
			c-2.078-1.487-3.387-4.049-5.132-6.253C408.862,67.797,406.95,69.824,404.995,71.898z M453.618,70.679
			c-4.319-4.13-9.099-4.897-14.959-4.615c4.315,3.01,7.975,5.563,11.753,8.199C451.432,73.124,452.372,72.071,453.618,70.679z
			 M403.438,78.376c-0.533,0.09-1.065,0.18-1.599,0.271c0.528,2.723,1.058,5.445,1.587,8.168c0.324,0.049,0.649,0.099,0.975,0.148
			c0.782-1.939,1.563-3.878,2.26-5.604C405.463,80.25,404.45,79.313,403.438,78.376z"/>
		<path fill-rule="evenodd" clip-rule="evenodd" d="M337.619,78.078c-2.172-1.706-4.344-3.411-6.479-5.087
			c-3.481,2.507-5.282,4.947-2.923,9.115c0.98,1.732,1.335,4.393,0.779,6.279c-0.749,2.541-2.15,5.525-4.214,6.847
			c-1.754,1.123-4.843,0.158-8.359,0.1c-1.336,1.992-1.404,5.576,1.164,8.161c1.618,1.629,4.734,1.793,7.226,2.433
			c0.088,0.022,0.678-1.908,1.24-3.52c-2.06,0.318-3.244,0.5-4.424,0.682c-0.106-0.345-0.335-0.699-0.242-0.84
			c3.651-5.509,12.435-7.186,17.013-2.84c1.474,1.399,2.353,4.245,2.206,6.339c-0.228,3.267-2.295,3.433-4.435,1.471
			c0.962-1.142,1.786-2.119,2.609-3.097c-1.657-0.345-3.532-1.346-4.923-0.886c-2.243,0.743-4.058,2.692-6.252,3.698
			c-4.983,2.287-8.523,1.755-11.029-1.293c-2.702-3.288-3.095-9.35-0.777-12.948c0.748-1.161,1.649-2.223,1.94-2.611
			c1.738,1.525,3.003,3.56,4.521,3.771c3.094,0.43,4.809-1.994,4.917-4.811c0.11-2.89-0.553-5.81-1.008-9.889
			c-2.575,2.132-3.89,3.796-5.602,4.523c-4.44,1.886-9.07,3.32-13.593,5.021c-1.275,0.479-3.469,1.262-3.466,1.896
			c0.012,2.191-0.896,5.191,2.654,5.924c0.42,0.087,0.825,0.248,1.231,0.393c2.606,0.929,4.829,2.309,4.512,5.493
			c-0.332,3.334-2.476,5.158-5.424,6.242c0-2.304,0.649-5.402-0.125-5.813c-2.066-1.095-5.109-1.982-7.099-1.219
			c-3.37,1.292-6.599,3.544-9.187,6.101c-2.075,2.051-3.779,2.277-5.459,0.505c-2.762-2.916-5.131-6.205-7.216-8.781
			c-0.211,0.696-0.447,2.817-1.44,4.487c-2.818,4.738-6.799,4.978-11.254,1.671c-2.784-2.065-6.099-3.604-9.402-4.685
			c-1.277-0.418-3.181,1.08-4.799,1.705c0.635,1.461,1.216,2.949,1.931,4.37c0.297,0.589,0.882,1.033,1.024,1.945
			c-3.868,0.327-5.957-2.104-7.179-5.288c-0.935-2.436-0.836-5.276,2.337-5.93c6.342-1.307,4.306-5.742,4.312-9.976
			c-8.31,0.503-15.263-1.914-20.441-8.322c-4.198,4.653-4.767,9.918-1.187,13.179c1.097,1,3.316,0.769,5.021,1.102
			c0-1.239,0-2.477,0-3.998c3.517,0.846,6.091,3.292,6.872,6.879c0.847,3.892,0.261,7.807-3.337,10.513
			c-3.358,2.526-6.933,2.025-14.09-1.991c-0.316,0.173-0.834,0.278-1.018,0.583c-1.428,2.383-3.373,4.066-5.95,2.078
			c-2.894-2.231-1.033-4.767,0.627-6.742c4.345-5.168,14.018-3.635,17.799,3.139c-1.71-0.46-3.064-0.825-4.419-1.19
			c-0.229,0.284-0.458,0.568-0.686,0.853c0.864,0.76,1.901,2.281,2.561,2.132c1.83-0.413,3.989-1.105,5.136-2.443
			c2.278-2.656,1.963-5.815,0.004-9.131c-3.527,2.281-7.342,3.419-10.283-0.323c-4.334-5.514-2.18-11.103,1.088-17.062
			c-1.363-1.304-2.783-2.663-4.171-3.991c-2.931,1.541-5.433,2.855-8.034,4.223c0.269,3.512,7.447,4.084,4.182,8.884
			c-0.888,1.305-3.519,1.425-5.866,1.664c5.945-4.658,0.82-7.494-1.4-10.899c3.153-1.62,6.126-3.147,9.821-5.045
			c-3.238-1.943-5.761-3.458-8.283-4.971c0.074-0.321,0.148-0.641,0.222-0.962c2.135,0.545,4.553,0.634,6.343,1.739
			c2.97,1.833,5.245,1.064,7.994-0.381c2.309-1.214,5.031-1.643,7.842-1.633c-3.251,1.366-6.502,2.731-10.78,4.528
			c1.992,1.557,3.277,2.561,3.996,3.124c4.658-2.324,9.052-4.521,13.453-6.705c0.575-0.286,1.404-0.887,1.744-0.692
			c4.543,2.599,8.965-0.266,13.436-0.23c1.665,0.013,3.235,2.172,2.332,4.517c1.748-1.283,3.062-2.248,4.481-3.29
			c-0.991,5.248-6.437,7.17-12.903,4.844c-1.91-0.688-3.947-1.024-6.258-1.604c0,2.179,0.014,3.523-0.005,4.867
			c-0.012,0.826-0.074,1.652-0.149,3.199c-1.643,0.758-3.562,0.284-4.58-2.374c-1.771-4.623,2.052-5.545,4.976-7.043
			c-3.522-1.585-9.606,1.357-14.044,6.7c5.926,7.594,11.708,8.69,23.142,4.192c0.224,5.076,0.403,10.04,0.677,14.999
			c0.123,2.228,8.067,10.596,10.162,10.848c3.039,0.365,6.74-4.271,6.525-8.366c-0.074-1.406-0.585-2.789-1.013-4.703
			c-2.841,3.575-5.833,6.48-10.263,4.05c-1.5-0.823-3.025-2.747-3.278-4.365c-0.231-1.484,1.236-3.232,1.955-4.864
			c0.366,0.131,0.731,0.262,1.096,0.393c-0.321,1.57-0.642,3.141-1.163,5.686c3.321-1.909,5.667-5.173,9.627-1.931
			c-0.249-1.529-0.25-3.152-0.786-4.573c-3.178-8.415-3.02-9.245,3.599-15.13c-1.301-1.375-2.614-2.763-3.928-4.15
			c0.218-0.262,0.437-0.524,0.655-0.787c1.812,1.372,3.625,2.745,5.69,4.309c1.553-2.25,2.681-5.744,4.76-6.455
			c3.038-1.038,6.765-0.174,10.186,0.066c2.009,0.141,4.587,1.61,5.882,0.813c5.176-3.186,10.694-1.823,15.896-1.442
			c4.404,0.322,8.629,2.742,13.01,3.954c1.247,0.345,2.861-0.037,4.137-0.528c2.593-0.998,5.069-2.298,7.593-3.473
			c0.224,0.443,0.446,0.886,0.67,1.329c-2.575,1.689-5.149,3.378-7.725,5.067c0.021,0.559,0.044,1.118,0.065,1.677
			c3.197,1.231,6.395,2.463,9.592,3.683c0-0.011-0.017-0.045-0.019-0.048c-1.232,0.91-2.464,1.822-3.694,2.735
			C337.89,78.325,337.755,78.202,337.619,78.078z M306.33,69.933c-1.989,0.687-4.868,1.344-7.419,2.646
			c-3.384,1.729-6.584,1.37-9.311-0.685c-1.937-1.459-3.141-3.889-4.41-5.544c-2.001,1.756-4.016,3.521-6.019,5.298
			c-0.073,0.065-0.029,0.263-0.066,0.728c0.822,0.492,1.707,1.349,2.734,1.583c5.675,1.294,5.245,7.796,2.851,12.174
			c-1.557,2.847-2.149,5.438-0.459,8.828c3.288-4.415,6.103-1.476,9.793,0.924c-0.152-2.131-0.243-3.395-0.339-4.743
			c2.646,0.872,3.391,2.824,1.466,4.451c-2.064,1.745-4.967,3.65-7.379,3.5c-2.322-0.145-4.486-2.827-6.986-4.583
			c-0.089,1.727-0.69,3.418-0.133,4.53c1.354,2.699,2.979,5.413,5.135,7.438c0.455,0.428,3.699-1.995,5.567-3.242
			c0.942-0.629,1.598-1.683,2.524-2.346c3.486-2.492,4.792-5.707,4.178-10.013c-0.505-3.544-0.423-7.173-0.613-11.008
			c12.536,4.447,18.635,3.292,24.719-4.503c-4.027-3.767-7.862-7.786-13.253-7.509c1.375,2.943,3.129,5.469,3.601,8.214
			c0.242,1.409-1.805,3.21-3.255,5.536C308.167,77.264,307.419,74.28,306.33,69.933z M327.398,70.92
			c-3.713-4.178-9.913-5.971-14.06-4.312c3.595,2.46,7.32,5.01,11.129,7.616C325.51,73.049,326.458,71.98,327.398,70.92z
			 M275.843,78.668c0.562,2.665,1.122,5.33,1.838,8.733C280.538,83.611,281.584,80.749,275.843,78.668z"/>
		<path fill-rule="evenodd" clip-rule="evenodd" d="M525.83,80.845c-5.036-4.199-10.146-2.024-15.441-0.905
			c2.269-2.971,8.718-3.166,5.886-8.625c-1.155-2.227-4.356-3.393-7.381-5.589c-0.127,2.408,0.023,3.413-0.271,4.262
			c-0.482,1.396-0.949,3.371-1.991,3.837c-1.021,0.458-2.907-0.399-4.132-1.144c-2.275-1.384-4.346-3.104-7.132-4.105
			c1.08,1.705,2.833,3.314,3.088,5.134c0.448,3.209,0.776,6.888-0.428,9.691c-0.623,1.454-4.63,1.47-7.115,2.105
			c-1.056,0.27-2.13,0.463-4.19,0.904c0.555-2.561,0.89-4.987,1.707-7.237c0.195-0.538,2.581-1.025,2.965-0.612
			c1.309,1.41,2.176,3.231,3.406,5.208c2.225-0.868,3.809-3.064,3.377-6.28c-0.599-4.46-2.775-7.788-7.142-7.814
			c-1.934,0.867-3.958,2.537-5.771,2.333c-1.314-0.148-2.348-2.781-3.947-4.886c-1.293,0.407-3.536,1.113-6.898,2.173
			c2.2,1.692,3.494,2.875,4.96,3.783c6.779,4.202,7.619,8.822,3.237,14.594c-0.258-1.705-0.539-4.03-1.059-6.3
			c-0.055-0.235-2.081-0.447-2.238-0.155c-0.607,1.127-0.828,2.462-1.464,4.654c-1.239-1.109-3.511-2.279-3.429-3.247
			c0.178-2.094,1.564-4.085,2.585-6.408c-1.255-0.484-3.344-1.291-5.641-2.177c-0.71,1.009-1.4,1.99-2.172,3.086
			c0-3.693,0-7.119,0-10.583c2.233,2.572,4.495,1.724,7.691,0.191c6.018-2.884,12.579-2.113,18.911-0.189
			c1.377,0.418,2.743,0.87,4.104,1.334c2.402,0.821,4.807,1.861,5.577-2.042c0.09-0.456,1.456-0.658,2.005-0.885
			c-0.645-1.213-1.337-2.516-2.023-3.81c-4.688,1.129-9.296,2.752-14.022,3.247c-5.657,0.593-11.405,0.745-16.689-2.666
			c-1.113-0.718-3.717,0.871-6.146,1.538c0.484,0.351,0.089,0.108,0.107,0.071c2.714-5.443-0.388-10.659-0.636-15.977
			c-0.223-4.752,2.36-8.761,6.627-9.915c4.373-1.183,8.875,1.586,11.428,7.03c1.572,3.355,0.366,7.032-3.275,9.771
			c-2.258,1.699-4.572,3.321-7.849,5.693c3.126,1.172,5.232,1.961,7.339,2.75c-0.15-0.428-0.303-0.856-0.453-1.284
			c1.74-1.71,3.291-3.766,5.35-4.893c0.535-0.293,2.659,2.319,4.441,3.953c6.005-1.489,8.851-7.406,5.734-12.344
			c-2.073,0.682-4.926,2.372-5.664,1.709c-1.594-1.434-2.324-4.011-2.967-6.247c-0.323-1.122,0.376-2.516,0.506-3.797
			c0.144-1.427,0.165-2.866,0.239-4.3c-1.438,0.19-2.872,0.443-4.317,0.553c-1.476,0.113-3.294,0.624-4.352-0.029
			c-1.077-0.666-1.411-2.537-2.071-3.879c0.362-0.208,0.725-0.415,1.086-0.622c0.681,0.778,1.36,1.556,2.75,3.145
			c1.255-1.645,2.179-3.611,3.727-4.555c0.743-0.453,2.665,1.027,4.137,1.668c1.583-0.069,4.041-0.933,5.218-0.063
			c2.129,1.574,3.493,4.182,5.177,6.357c-0.322,0.167-0.645,0.333-0.967,0.501c-1.968-0.673-4.331-2.34-5.796-1.755
			c-1.644,0.656-2.475,3.347-4.055,5.757c4.692,0.226,8.178,0.317,9.765,4.723c2.219,6.157-0.555,10.255-5.041,13.935
			c0.28,0.291,0.56,0.581,0.839,0.872c2.42-1.955,4.886-3.854,7.245-5.878c3.024-2.595,5.206-2.064,6.481,1.459
			c0.539,1.49,1.676,2.765,2.54,4.137c1.58-1.49,4.135-2.796,4.459-4.523c0.311-1.644-1.49-3.896-2.788-5.545
			c-0.68-0.862-2.272-1.005-3.383-2.347c6.365,1.432,12.438,2.164,17.793-3.066c0.008,4.678-1.029,5.573-6.153,6.146
			c0.337,2.421,0.677,4.858,1.106,7.94c3.502-0.329,8.19-2.333,10.209,3.464c-1.418,1.329-3.035,3.075-4.905,4.488
			c-0.806,0.608-2.396,1.054-3.175,0.664c-2.717-1.359-3.714-0.682-3.695,2.255c0.01,1.563-0.27,3.127-0.395,4.45
			c1.797,0.973,3.682,1.993,5.566,3.014C526.303,79.446,526.066,80.146,525.83,80.845z M477.167,51.856
			c-1.187-2.038-2.935-3.742-2.975-5.486c-0.038-1.625,1.739-3.292,2.717-4.942c0.383,0.182,0.765,0.365,1.148,0.546
			c0.094,0.812-0.107,1.912,0.344,2.372c0.855,0.873,2.084,1.377,3.157,2.036c0.505-1.05,1.529-2.161,1.416-3.139
			c-0.348-2.969-4.723-5.156-8.411-3.949c-2.7,0.883-5.068,2.572-3.68,6.245c0.261,0.691,0.284,1.885-0.135,2.352
			c-2.72,3.027-0.406,4.755,1.253,6.776C474.026,53.565,475.778,52.612,477.167,51.856z M526.144,64.584
			c-4.741-4.147-9.084-0.657-14.325,0.315C517.089,66.875,521.533,69.439,526.144,64.584z"/>
		<path fill-rule="evenodd" clip-rule="evenodd" d="M489.126,89.027c4.247,4.106,4.439,4.144,9.698,1.432
			c-0.349,3.994-2.716,5.884-5.997,7.573c-0.577-1.093-1.162-2.203-1.851-3.509c-3.715,5.397-3.685,5.357-8.227,1.932
			c-0.717-0.541-1.848-0.533-3.351-1.773c1.289-0.55,2.57-1.124,3.879-1.622c0.171-0.065,0.488,0.375,0.74,0.379
			c1.777,0.029,3.555,0.007,5.333,0C489.273,91.917,489.196,90.396,489.126,89.027z"/>
		<path fill-rule="evenodd" clip-rule="evenodd" d="M77.801,32.618c-0.233,3.367-1.763,3.881-4.794,2.643
			c-1.401-0.572-3.39-0.588-4.739,0c-0.612,0.266-0.316,2.617-0.438,4.098c-2.42-2.982-5.422-4.883-9.255-0.371
			c-0.25-0.526-0.5-1.052-0.75-1.578c1.787-2.235,3.573-4.471,5.573-6.974c1.523,1.336,2.496,2.19,3.492,3.064
			c3.086-4.653,3.044-4.594,7.632-1.256C75.251,32.774,76.564,32.501,77.801,32.618z"/>
		<path fill-rule="evenodd" clip-rule="evenodd" d="M59.832,55.729c-4.235-2.662-2.523-6.661-1.138-9.505
			c0.869-1.785,4.306-2.458,6.706-3.301c1.173-0.412,2.61-0.071,4.915-0.071c-0.367,1.875-0.667,4.409-1.486,6.761
			c-0.172,0.495-2.83,0.879-3.35,0.346c-1.22-1.249-1.838-3.085-2.878-5.014c-2.589,1.582-4.689,3.805-3.212,7.9
			c0.329,0.911,0.249,1.968,0.357,2.958L59.832,55.729z"/>
		<path fill-rule="evenodd" clip-rule="evenodd" d="M338.024,78.448c-1.701,3.239-0.924,5.739,2.716,7.486
			c-2.501,2.567-4.875,2.432-6.756,0.215c-1.736-2.045-1.338-4.188,1.197-5.724c0.941-0.57,1.633-1.553,2.438-2.347
			C337.755,78.202,337.89,78.325,338.024,78.448z"/>
		<path fill-rule="evenodd" clip-rule="evenodd" fill="#FFFFFF" d="M275.283,32.429c-5.983-5.976-9.075-6.416-13.248-2.099
			c-1.917,1.982-2.137,3.855,1.022,5.929c-0.235-1.897-0.397-3.207-0.596-4.809c6.866,3.3,6.866,3.3,10.835,0.943
			c-0.349,2.396-0.555,4.826-1.096,7.179c-0.381,1.657-1.468,3.157-1.804,4.815c-0.979,4.839,0.471,7.156,5.156,8.858
			c0.766,0.279,1.472,0.725,2.735,1.361c-1.46,1.274-2.663,2.204-3.719,3.278c-0.972,0.987-1.787,2.129-2.913,3.497
			c-0.631-1.028-1.107-1.687-1.463-2.404c-2.883-5.814-7.322-7.217-13.133-4.406c-2.293,1.11-4.847,1.683-6.555,2.256
			c-1.164-4.093-2.023-7.116-2.952-10.38c-2.678-0.016-3.475,2.32-3.725,4.828c-0.391,3.929,2.325,5.54,5.598,6.618
			c-4.081,2.027-9.631-0.492-14.701-6.569c4.678-7.313,12.367-8.766,24.522-4.169c-0.279-4.501-0.788-8.685-0.69-12.854
			c0.048-2.02,0.835-4.289,1.995-5.952c1.794-2.575,4.23-4.696,6.327-7.069c1.952-2.209,3.798-2.213,5.793-0.056
			C275.558,24.346,277.503,27.658,275.283,32.429z"/>
		<path fill-rule="evenodd" clip-rule="evenodd" fill="#FFFFFF" d="M155.035,94.403c6.19,5.644,9.936,6.121,13.638,1.944
			c1.928-2.175,1.846-2.808-1.041-5.423c0.133,1.504,0.236,2.657,0.407,4.577c-2.161-1.143-3.661-2.444-5.299-2.651
			c-1.452-0.184-3.057,0.849-5.529,1.646c0.211-2.509-0.179-5.154,0.718-7.246c3.839-8.954,3.776-9.57-4.32-14.447
			c-0.204-0.123-0.266-0.481-0.51-0.954c1.834-1.983,3.722-4.024,5.627-6.083c1.69,2.165,2.969,4.708,5.014,6.199
			c2.73,1.99,5.925,2.321,9.308,0.498c2.48-1.336,5.415-1.831,7.517-2.5c0.852,4.087,1.485,7.122,2.351,11.275
			c1.434-1.789,3.193-3.079,3.648-4.729c1.11-4.033-1.82-6.165-4.797-8.209c6.463-0.768,10.369,3.257,14.737,7.429
			c-7.49,6.835-15.015,10.78-24.577,3.75c0,5.15,0.214,9.563-0.1,13.939c-0.135,1.882-1.099,3.865-2.177,5.474
			c-1.1,1.642-2.682,3.037-4.271,4.254c-1.776,1.361-5.121,3.734-5.496,3.362c-2.222-2.205-4.006-4.964-5.441-7.79
			C153.923,97.701,154.778,95.983,155.035,94.403z"/>
		<path fill-rule="evenodd" clip-rule="evenodd" fill="#FFFFFF" d="M152.551,54.487c-1.778,1.484-2.92,2.286-3.871,3.273
			c-0.973,1.01-1.758,2.202-2.565,3.236c-0.531-0.157-0.952-0.154-1.042-0.326c-4.341-8.239-7.038-9.083-15.731-5.189
			c-1.713,0.767-3.69,0.943-4.924,1.242c-1.138-3.911-2.045-7.028-2.952-10.146c-0.316-0.204-0.633-0.408-0.95-0.612
			c-0.91,1.95-2.883,4.163-2.482,5.79c0.614,2.492,2.864,4.581,4.339,6.723c-2.85,1.487-8.836-1.228-14.071-7.639
			c7.372-6.826,15.187-10.187,25.04-3.031c-0.33-5.334-0.87-9.619-0.737-13.882c0.062-2.014,1.093-4.203,2.26-5.923
			c1.438-2.121,3.52-3.794,5.243-5.734c3.185-3.585,4.838-3.556,7.813,0.247c2.35,3.004,2.647,5.188,1.301,9.538
			c-6.319-5.464-10.139-5.836-13.603-1.324c-1.483,1.931-1.153,3.232,1.811,5.398c-0.54-1.614-0.917-2.741-1.748-5.224
			c2.681,1.478,4.206,2.84,5.897,3.094c1.49,0.224,3.167-0.791,5.693-1.532c-0.24,2.063-0.306,4.348-0.823,6.526
			c-0.425,1.793-1.573,3.407-2.071,5.193c-1.217,4.363,0.32,7.246,4.52,8.903C149.799,53.442,150.708,53.782,152.551,54.487z"/>
		<path fill-rule="evenodd" clip-rule="evenodd" fill="#FFFFFF" d="M404.371,54.464c-3.034,2.101-5.367,3.717-7.701,5.333
			c0.365,0.375,0.729,0.751,1.094,1.126c-0.256-0.101-0.647-0.128-0.748-0.313c-4.516-8.28-6.933-9.01-15.757-5.083
			c-1.715,0.763-3.706,0.902-4.92,1.18c-1.101-3.921-1.981-7.064-2.863-10.207c-0.362-0.174-0.724-0.35-1.086-0.525
			c-0.88,1.982-2.81,4.228-2.394,5.884c0.621,2.473,2.895,4.53,4.352,6.604c-3.12,1.462-9.663-1.64-14.349-8.423
			c4.146-2.102,8.002-5.203,12.244-5.877c4.007-0.637,8.419,1.277,13.064,2.146c-0.255-3.603-0.39-7.695-0.882-11.744
			c-0.361-2.989,0.26-5.268,2.765-7.139c1.476-1.103,2.604-2.679,3.866-4.063c4.602-5.046,7.898-4.512,10.379,1.986
			c0.755,1.979,0.514,4.337,0.703,6.267c-3.583-1.489-6.545-3.337-9.7-3.769c-1.568-0.214-3.898,1.87-5.099,3.494
			c-0.689,0.934,0.194,3.029,0.369,4.601c0.53-0.087,1.062-0.173,1.592-0.259c-0.344-1.16-0.687-2.319-1.353-4.567
			c2.48,1.327,4.043,2.685,5.761,2.923c1.468,0.203,3.112-0.879,4.935-1.477c1.906,2.949-0.02,5.885-1.302,8.867
			c-2.422,5.629-1.682,9.161,2.432,11.148C401.03,53.185,402.357,53.645,404.371,54.464z"/>
		<path fill-rule="evenodd" clip-rule="evenodd" fill="#FFFFFF" d="M341.53,62.108c-0.855-0.993-1.553-2.22-2.6-2.931
			c-1.991-1.351-4.183-2.407-6.349-3.618c4.853-5.943,11.137-5.845,18.246,0.69c-3.304,2.018-6.354,3.881-9.396,5.751
			C341.44,62.008,341.53,62.108,341.53,62.108z"/>
		<path fill-rule="evenodd" clip-rule="evenodd" fill="#FFFFFF" d="M215.814,60.968c-3.021-1.806-6.043-3.611-9.111-5.445
			c4.734-5.895,10.434-5.836,17.567-0.012c-1.81,3.457-4.802,5.006-8.555,5.381C215.717,60.892,215.814,60.968,215.814,60.968z"/>
		<path fill-rule="evenodd" clip-rule="evenodd" fill="#FFFFFF" d="M79.817,86.727c4.763-2.32,4.741-5.743-0.43-9.494
			c2.021-1.061,3.945-2.07,6.026-3.162c1.952,1.918,3.259,3.851,1.207,6.6c-0.418,0.56-0.675,1.756-0.363,2.262
			c2.207,3.573-0.72,5.074-2.837,6.324c-2.619,1.545-7.893-0.227-8.721-2.654c-0.37-1.085-0.125-2.511,0.249-3.647
			c0.128-0.39,1.966-0.766,2.222-0.466C78.174,83.664,78.857,85.113,79.817,86.727z"/>
		<path fill-rule="evenodd" clip-rule="evenodd" fill="#FFFFFF" d="M65.559,63.575c-4.676,1.473-9.168,2.888-13.54,4.265
			c-2.486-2.625-1.116-5.122,0.563-6.574c1.082-0.936,3.639-0.592,5.404-0.213C60.583,61.612,63.062,62.715,65.559,63.575z"/>
		<path fill-rule="evenodd" clip-rule="evenodd" fill="#FFFFFF" d="M368.906,61.602c-4.678-1.409-9.355-2.819-15.054-4.536
			c2.073-2.185,3.115-3.282,4.332-4.564c3.843,2.644,7.529,5.179,11.215,7.715C369.235,60.678,369.07,61.14,368.906,61.602z"/>
		<path fill-rule="evenodd" clip-rule="evenodd" fill="#FFFFFF" d="M228.629,55.746c1.214-0.96,2.427-1.921,3.833-3.033
			c3.647,2.498,7.325,5.016,11.003,7.534c-0.149,0.446-0.297,0.892-0.446,1.337c-4.763-1.43-9.525-2.859-14.288-4.29
			C228.697,56.778,228.664,56.262,228.629,55.746z"/>
		<path fill-rule="evenodd" clip-rule="evenodd" fill="#FFFFFF" d="M116.942,61.703c-4.645-1.442-9.29-2.884-14.882-4.621
			c1.874-2.106,2.859-3.214,4.058-4.563c3.914,2.656,7.615,5.167,11.316,7.678C117.27,60.699,117.106,61.201,116.942,61.703z"/>
		<path fill-rule="evenodd" clip-rule="evenodd" fill="#FFFFFF" d="M201.658,70.701c-1.259,1.396-2.269,2.515-3.224,3.574
			c-3.888-2.731-7.481-5.254-11.681-8.204C192.373,65.819,197.139,66.417,201.658,70.701z"/>
		<path fill-rule="evenodd" clip-rule="evenodd" fill="#FFFFFF" d="M44.687,64.065c-4.773,0.763-9.047,4.486-13.369,0.124
			C36.241,60.233,37.65,60.2,44.687,64.065z"/>
		<path fill-rule="evenodd" clip-rule="evenodd" fill="#FFFFFF" d="M153.801,49.885c-2.19-2.829-4.781-5.66-1.441-9.715
			C154.943,43.194,156.234,46.251,153.801,49.885z"/>
		<path fill-rule="evenodd" clip-rule="evenodd" fill="#FFFFFF" d="M279.168,39.235c0.739,3.859,1.3,6.782,1.86,9.706
			C276.433,46.727,275.529,43.862,279.168,39.235z"/>
		<path fill-rule="evenodd" clip-rule="evenodd" fill="#FFFFFF" d="M404.487,40.002c1.848,3.111,4.171,5.792,1.384,9.267
			C402.745,46.767,401.397,43.925,404.487,40.002z"/>
		<path fill-rule="evenodd" clip-rule="evenodd" fill="#FFFFFF" d="M151.63,87.049c-0.647-2.999-1.224-5.671-1.801-8.345
			C155.571,82.003,155.571,82.003,151.63,87.049z"/>
		<path fill-rule="evenodd" clip-rule="evenodd" fill="#FFFFFF" d="M404.995,71.898c1.955-2.074,3.867-4.101,5.726-6.072
			c1.745,2.205,3.054,4.767,5.132,6.253c2.59,1.853,5.709,2.207,8.942,0.531c2.548-1.321,5.438-1.98,7.767-2.791
			c0.817,4.094,1.444,7.244,2.278,11.425c1.531-1.777,4.032-3.495,3.792-4.633c-0.634-3.001-2.458-5.752-3.726-8.427
			c3.366-0.828,9.152,2.164,13.666,8.483c-4.091,2.125-7.874,5.207-12.071,5.953c-3.979,0.707-8.394-1.033-12.473-1.674
			c0,3.851,0.1,8.39-0.06,12.921c-0.05,1.433-0.422,3.146-1.29,4.2c-2.095,2.54-4.623,4.714-6.874,7.132
			c-2.127,2.287-3.964,2.266-6.143-0.041c-2.928-3.099-4.45-6.343-2.308-10.475c5.797,5.309,9.717,5.796,13.327,1.652
			c1.859-2.133,1.758-2.862-1.026-5.373c0.121,1.482,0.219,2.673,0.372,4.559c-2.158-1.138-3.665-2.433-5.314-2.652
			c-1.473-0.195-3.103,0.798-5.641,1.56c0.276-2.53-0.014-5.147,0.893-7.25c3.78-8.774,3.625-9.71-4.111-14.196
			C405.524,72.793,405.343,72.351,404.995,71.898z"/>
		<path fill-rule="evenodd" clip-rule="evenodd" fill="#FFFFFF" d="M453.618,70.679c-1.246,1.393-2.187,2.445-3.206,3.584
			c-3.778-2.636-7.438-5.189-11.753-8.199C444.52,65.781,449.299,66.549,453.618,70.679z"/>
		<path fill-rule="evenodd" clip-rule="evenodd" fill="#FFFFFF" d="M403.438,78.376c1.013,0.937,2.025,1.875,3.223,2.982
			c-0.696,1.726-1.478,3.665-2.26,5.604c-0.325-0.049-0.65-0.099-0.975-0.148c-0.529-2.723-1.059-5.445-1.587-8.168
			C402.372,78.556,402.904,78.466,403.438,78.376z"/>
		<path fill-rule="evenodd" clip-rule="evenodd" fill="#FFFFFF" d="M306.33,69.933c1.089,4.348,1.837,7.331,2.925,11.675
			c1.45-2.326,3.497-4.127,3.255-5.536c-0.472-2.746-2.226-5.271-3.601-8.214c5.391-0.276,9.226,3.742,13.253,7.509
			c-6.084,7.796-12.183,8.95-24.719,4.503c0.19,3.835,0.108,7.463,0.613,11.008c0.614,4.306-0.691,7.521-4.178,10.013
			c-0.927,0.663-1.582,1.717-2.524,2.346c-1.868,1.248-5.112,3.67-5.567,3.242c-2.156-2.025-3.781-4.739-5.135-7.438
			c-0.557-1.112,0.043-2.804,0.133-4.53c2.5,1.756,4.664,4.438,6.986,4.583c2.413,0.151,5.315-1.755,7.379-3.5
			c1.925-1.627,1.18-3.58-1.466-4.451c0.096,1.348,0.187,2.612,0.339,4.743c-3.69-2.4-6.505-5.339-9.793-0.924
			c-1.689-3.391-1.097-5.981,0.459-8.828c2.394-4.378,2.824-10.88-2.851-12.174c-1.027-0.234-1.912-1.09-2.734-1.583
			c0.037-0.464-0.007-0.662,0.066-0.728c2.003-1.778,4.018-3.542,6.019-5.298c1.269,1.655,2.473,4.085,4.41,5.544
			c2.727,2.055,5.927,2.414,9.311,0.685C301.462,71.277,304.341,70.62,306.33,69.933z"/>
		<path fill-rule="evenodd" clip-rule="evenodd" fill="#FFFFFF" d="M327.398,70.92c-0.94,1.06-1.889,2.129-2.931,3.304
			c-3.809-2.606-7.534-5.156-11.129-7.616C317.485,64.949,323.686,66.742,327.398,70.92z"/>
		<path fill-rule="evenodd" clip-rule="evenodd" fill="#FFFFFF" d="M275.843,78.668c5.741,2.08,4.695,4.943,1.838,8.733
			C276.965,83.999,276.405,81.333,275.843,78.668z"/>
		<path fill-rule="evenodd" clip-rule="evenodd" fill="#FFFFFF" d="M477.167,51.856c-1.389,0.756-3.141,1.709-5.165,2.812
			c-1.659-2.021-3.973-3.75-1.253-6.776c0.419-0.466,0.396-1.661,0.135-2.352c-1.389-3.672,0.979-5.361,3.68-6.245
			c3.688-1.207,8.063,0.98,8.411,3.949c0.113,0.978-0.911,2.088-1.416,3.139c-1.073-0.658-2.302-1.163-3.157-2.036
			c-0.451-0.46-0.25-1.561-0.344-2.372c-0.384-0.182-0.766-0.364-1.148-0.546c-0.978,1.649-2.755,3.317-2.717,4.942
			C474.232,48.114,475.98,49.818,477.167,51.856z"/>
		<path fill-rule="evenodd" clip-rule="evenodd" fill="#FFFFFF" d="M526.144,64.584c-4.61,4.855-9.055,2.291-14.325,0.315
			C517.06,63.927,521.402,60.437,526.144,64.584z"/>
	</g>
</g>
</svg>
